<svg id="svg" version="1.1" xmlns="http://www.w3.org/2000/svg" xmlns:xlink="http://www.w3.org/1999/xlink" width="400" height="166.2135922330097" viewBox="0, 0, 400,166.2135922330097"><g id="svgg"><path id="path0" d="M236.917 36.005 C 236.367 36.079,235.429 36.257,234.833 36.400 C 234.237 36.543,233.394 36.661,232.959 36.663 C 232.524 36.665,231.736 36.810,231.209 36.986 C 230.682 37.162,229.877 37.357,229.421 37.419 C 228.964 37.481,228.311 37.675,227.969 37.849 C 227.627 38.024,227.137 38.167,226.882 38.168 C 226.626 38.169,226.042 38.354,225.583 38.580 C 225.125 38.805,224.554 38.992,224.314 38.995 C 224.074 38.998,223.688 39.150,223.455 39.333 C 223.221 39.517,222.922 39.667,222.789 39.667 C 222.655 39.667,222.270 39.854,221.933 40.083 C 221.595 40.313,221.224 40.500,221.108 40.500 C 220.993 40.500,220.644 40.688,220.333 40.917 C 220.023 41.146,219.682 41.333,219.576 41.333 C 219.471 41.333,219.228 41.465,219.038 41.625 C 218.730 41.884,218.436 42.077,217.295 42.768 C 216.330 43.352,211.333 48.461,211.333 48.863 C 211.333 48.951,211.146 49.268,210.917 49.569 C 210.688 49.869,210.500 50.171,210.500 50.239 C 210.500 50.308,210.350 50.555,210.167 50.788 C 209.983 51.021,209.833 51.321,209.833 51.455 C 209.833 51.589,209.691 51.898,209.517 52.142 C 209.343 52.387,209.117 52.886,209.015 53.252 C 208.912 53.617,208.717 54.062,208.581 54.240 C 208.445 54.418,208.333 54.815,208.333 55.122 C 208.333 55.429,208.181 55.979,207.994 56.345 C 207.614 57.090,207.069 62.914,207.247 64.333 C 207.298 64.746,207.408 66.069,207.490 67.273 C 207.589 68.728,207.731 69.641,207.913 69.994 C 208.065 70.286,208.256 70.942,208.339 71.452 C 208.422 71.962,208.596 72.500,208.726 72.648 C 208.857 72.796,209.018 73.179,209.086 73.500 C 209.153 73.821,209.339 74.271,209.499 74.500 C 209.659 74.729,209.847 75.103,209.918 75.330 C 209.989 75.558,210.175 75.933,210.331 76.163 C 210.487 76.394,210.830 76.921,211.093 77.333 C 212.687 79.833,216.169 83.294,218.846 85.040 C 219.357 85.373,219.873 85.763,219.991 85.906 C 220.110 86.050,220.339 86.167,220.500 86.167 C 220.661 86.167,220.880 86.272,220.987 86.401 C 221.094 86.530,221.422 86.759,221.716 86.910 C 222.010 87.061,222.625 87.400,223.083 87.664 C 223.542 87.928,224.104 88.224,224.333 88.322 C 224.563 88.420,224.862 88.575,225.000 88.668 C 225.137 88.760,225.438 88.918,225.667 89.017 C 226.127 89.218,226.864 89.557,228.513 90.323 C 229.116 90.604,229.701 90.833,229.812 90.833 C 229.923 90.833,230.217 90.976,230.465 91.151 C 230.713 91.326,231.190 91.515,231.525 91.572 C 231.859 91.629,232.221 91.781,232.328 91.910 C 232.435 92.040,232.762 92.197,233.053 92.260 C 233.573 92.373,233.861 92.500,235.625 93.391 C 236.106 93.634,236.598 93.833,236.718 93.833 C 236.837 93.833,237.189 94.021,237.500 94.250 C 237.811 94.479,238.190 94.667,238.343 94.667 C 238.496 94.667,238.801 94.805,239.019 94.975 C 239.238 95.144,239.618 95.332,239.863 95.392 C 240.109 95.451,240.410 95.600,240.531 95.722 C 240.653 95.844,240.948 96.050,241.187 96.180 C 241.426 96.310,242.007 96.624,242.478 96.878 C 242.948 97.131,243.333 97.413,243.333 97.503 C 243.333 97.593,243.407 97.667,243.498 97.667 C 244.428 97.667,247.649 101.077,248.614 103.083 L 249.417 104.750 249.416 106.583 C 249.415 108.174,249.365 108.505,249.041 109.081 C 248.835 109.446,248.666 109.859,248.666 109.998 C 248.663 110.958,245.854 113.660,244.167 114.325 C 243.846 114.451,243.471 114.646,243.333 114.756 C 243.196 114.867,242.783 115.012,242.417 115.077 C 242.050 115.143,241.450 115.330,241.083 115.493 C 240.717 115.656,239.929 115.832,239.333 115.885 C 238.737 115.938,237.803 116.098,237.257 116.241 C 235.894 116.596,230.183 116.608,228.942 116.257 C 228.470 116.124,227.366 115.938,226.489 115.843 C 225.613 115.749,224.675 115.565,224.406 115.435 C 224.137 115.305,223.504 115.146,223.000 115.083 C 222.496 115.020,221.917 114.863,221.713 114.733 C 221.509 114.604,220.947 114.415,220.463 114.314 C 219.979 114.212,219.471 114.032,219.333 113.913 C 219.196 113.795,218.746 113.609,218.333 113.500 C 217.921 113.391,217.471 113.210,217.333 113.097 C 217.196 112.983,216.765 112.800,216.375 112.689 C 215.985 112.578,215.667 112.430,215.667 112.360 C 215.667 112.291,215.385 112.134,215.042 112.013 C 214.698 111.892,214.304 111.698,214.167 111.583 C 214.029 111.467,213.729 111.318,213.500 111.251 C 213.271 111.183,212.933 110.997,212.750 110.836 C 212.567 110.675,212.218 110.440,211.975 110.313 C 211.236 109.928,209.633 108.813,208.710 108.041 C 208.230 107.640,207.762 107.358,207.669 107.415 C 207.418 107.570,207.439 126.850,207.690 127.401 C 207.810 127.664,208.070 127.857,208.398 127.925 C 208.683 127.984,209.230 128.213,209.613 128.433 C 209.996 128.653,210.486 128.833,210.701 128.833 C 210.916 128.833,211.270 128.957,211.486 129.109 C 211.703 129.261,212.206 129.446,212.604 129.520 C 213.001 129.595,213.662 129.808,214.071 129.994 C 214.480 130.181,215.041 130.333,215.318 130.333 C 215.595 130.333,216.217 130.478,216.702 130.654 C 217.187 130.830,218.071 131.024,218.667 131.085 C 219.262 131.146,220.313 131.331,221.000 131.497 C 221.688 131.662,223.000 131.846,223.917 131.904 C 224.833 131.962,226.071 132.120,226.667 132.254 C 227.410 132.422,229.294 132.531,232.667 132.602 C 237.575 132.705,238.328 132.664,242.083 132.093 C 243.000 131.954,244.162 131.837,244.667 131.834 C 245.171 131.831,246.033 131.689,246.583 131.517 C 247.133 131.346,248.063 131.151,248.650 131.084 C 249.236 131.016,250.024 130.822,250.400 130.651 C 250.776 130.480,251.323 130.339,251.616 130.337 C 251.909 130.335,252.502 130.146,252.933 129.917 C 253.364 129.688,253.920 129.500,254.169 129.500 C 254.418 129.500,254.812 129.350,255.045 129.167 C 255.279 128.983,255.581 128.833,255.718 128.833 C 255.854 128.833,256.394 128.608,256.917 128.333 C 257.439 128.058,257.972 127.833,258.100 127.833 C 258.228 127.833,258.333 127.755,258.333 127.658 C 258.333 127.562,258.583 127.379,258.888 127.251 C 259.193 127.124,259.540 126.902,259.659 126.760 C 259.777 126.617,259.968 126.500,260.082 126.500 C 260.266 126.500,261.613 125.509,262.833 124.476 C 264.817 122.798,267.101 120.128,267.744 118.737 C 267.874 118.454,268.098 118.127,268.240 118.008 C 268.383 117.889,268.500 117.708,268.501 117.605 C 268.501 117.501,268.726 116.967,269.000 116.417 C 269.274 115.867,269.499 115.323,269.499 115.208 C 269.500 115.093,269.650 114.719,269.833 114.377 C 270.017 114.035,270.167 113.548,270.167 113.296 C 270.167 113.043,270.320 112.442,270.507 111.960 C 271.245 110.057,271.313 99.577,270.595 98.190 C 270.439 97.887,270.238 97.188,270.149 96.638 C 270.060 96.087,269.885 95.474,269.760 95.277 C 269.635 95.079,269.482 94.674,269.420 94.377 C 269.358 94.080,269.234 93.792,269.145 93.737 C 269.055 93.681,268.798 93.249,268.574 92.776 C 268.102 91.782,267.637 91.001,266.875 89.919 C 266.577 89.496,266.333 89.097,266.332 89.033 C 266.328 88.649,261.724 84.442,260.138 83.373 C 257.333 81.484,256.769 81.121,256.279 80.890 C 255.988 80.753,255.396 80.440,254.962 80.195 C 253.430 79.329,251.805 78.500,251.638 78.500 C 251.545 78.500,251.281 78.352,251.051 78.171 C 250.821 77.990,250.378 77.794,250.066 77.736 C 249.755 77.677,249.500 77.569,249.500 77.495 C 249.500 77.421,249.131 77.237,248.679 77.088 C 248.228 76.938,247.776 76.715,247.674 76.592 C 247.572 76.469,247.210 76.317,246.869 76.253 C 246.529 76.190,246.137 76.042,246.000 75.924 C 245.862 75.805,245.450 75.613,245.083 75.497 C 244.717 75.380,244.238 75.146,244.019 74.976 C 243.801 74.806,243.454 74.667,243.250 74.667 C 243.046 74.667,242.699 74.526,242.481 74.355 C 242.262 74.184,241.845 73.991,241.553 73.928 C 241.262 73.864,240.938 73.709,240.833 73.583 C 240.729 73.458,240.405 73.304,240.113 73.243 C 239.822 73.181,239.433 72.997,239.250 72.834 C 239.067 72.672,238.729 72.482,238.500 72.414 C 238.271 72.346,237.896 72.159,237.667 72.000 C 237.438 71.841,237.091 71.661,236.897 71.601 C 236.703 71.541,236.410 71.343,236.246 71.162 C 236.082 70.981,235.874 70.833,235.783 70.833 C 235.535 70.833,234.004 69.776,233.271 69.098 C 232.915 68.769,232.586 68.500,232.538 68.500 C 232.415 68.500,231.337 67.437,231.335 67.313 C 231.334 67.256,231.032 66.881,230.664 66.479 C 230.296 66.078,229.925 65.497,229.839 65.189 C 229.753 64.880,229.548 64.478,229.383 64.296 C 228.834 63.690,228.845 60.229,229.399 59.170 C 229.638 58.713,229.833 58.255,229.833 58.152 C 229.833 57.871,231.495 55.934,231.854 55.797 C 232.026 55.731,232.167 55.605,232.167 55.517 C 232.167 55.319,233.494 54.410,234.026 54.243 C 234.241 54.176,234.596 53.981,234.814 53.810 C 235.033 53.640,235.333 53.498,235.481 53.496 C 235.629 53.494,236.076 53.345,236.476 53.163 C 236.875 52.982,237.700 52.755,238.309 52.658 C 238.918 52.562,239.754 52.368,240.167 52.229 C 241.308 51.843,249.610 51.845,250.653 52.232 C 251.057 52.382,252.104 52.584,252.977 52.682 C 253.851 52.779,254.765 52.962,255.007 53.087 C 255.250 53.212,255.853 53.368,256.349 53.433 C 256.845 53.498,257.512 53.685,257.833 53.849 C 258.154 54.012,258.717 54.198,259.083 54.263 C 259.450 54.328,259.929 54.521,260.147 54.691 C 260.366 54.861,260.722 55.000,260.939 55.000 C 261.270 55.000,262.242 55.420,263.333 56.034 C 263.471 56.112,263.918 56.334,264.327 56.528 C 264.736 56.722,265.173 56.982,265.297 57.107 C 265.422 57.231,265.618 57.333,265.733 57.333 C 265.848 57.333,266.113 57.515,266.322 57.738 C 267.173 58.643,267.167 58.708,267.167 48.583 C 267.167 38.481,267.210 39.000,266.359 39.000 C 266.205 39.000,265.795 38.848,265.449 38.662 C 265.102 38.477,264.466 38.279,264.034 38.222 C 263.603 38.166,262.983 37.986,262.658 37.823 C 262.332 37.660,261.507 37.473,260.824 37.408 C 260.142 37.343,259.375 37.184,259.120 37.054 C 258.865 36.925,257.852 36.747,256.870 36.659 C 255.887 36.571,254.671 36.376,254.167 36.226 C 253.138 35.920,238.891 35.737,236.917 36.005 M52.707 37.472 C 52.542 37.577,52.506 39.363,52.540 45.844 L 52.583 54.083 65.783 54.167 C 74.655 54.223,79.041 54.307,79.158 54.425 C 79.278 54.545,79.346 66.442,79.375 92.758 L 79.417 130.917 89.750 130.917 L 100.083 130.917 100.125 92.704 L 100.167 54.491 100.595 54.329 C 100.859 54.229,106.011 54.167,114.094 54.167 L 127.167 54.167 127.167 45.750 L 127.167 37.333 90.042 37.336 C 69.623 37.337,52.822 37.398,52.707 37.472 M140.112 37.444 C 140.050 37.505,140.000 58.581,140.000 84.278 L 140.000 131.000 168.167 131.000 L 196.333 131.000 196.333 122.667 L 196.333 114.333 179.125 114.331 C 165.586 114.329,161.828 114.283,161.500 114.118 L 161.083 113.907 161.040 103.308 C 161.005 94.562,161.037 92.677,161.223 92.522 C 161.385 92.388,165.671 92.323,176.516 92.293 L 191.583 92.250 191.627 83.875 L 191.670 75.500 176.705 75.500 C 163.431 75.500,161.699 75.471,161.370 75.241 L 161.000 74.981 161.000 64.833 L 161.000 54.686 161.370 54.426 C 161.699 54.196,163.542 54.167,177.872 54.167 L 194.003 54.167 193.960 45.792 L 193.917 37.417 167.070 37.374 C 152.304 37.351,140.173 37.383,140.112 37.444 M278.625 37.513 C 278.198 37.762,278.171 53.902,278.597 54.066 C 278.742 54.121,284.625 54.167,291.669 54.167 C 299.581 54.167,304.642 54.229,304.905 54.329 L 305.333 54.491 305.375 92.704 L 305.417 130.917 315.750 130.917 L 326.083 130.917 326.125 92.704 L 326.167 54.491 326.595 54.329 C 326.859 54.229,332.012 54.167,340.096 54.167 L 353.170 54.167 353.127 45.792 L 353.083 37.417 316.000 37.380 C 291.016 37.355,278.822 37.399,278.625 37.513 " stroke="none" fill="#040404" fill-rule="evenodd"></path><path id="path1" d="M0.000 83.083 L 0.000 166.167 200.000 166.167 L 400.000 166.167 400.000 83.083 L 400.000 0.000 200.000 0.000 L 0.000 0.000 0.000 83.083 M249.333 35.099 C 250.204 35.243,252.201 35.415,253.770 35.481 C 256.112 35.578,256.706 35.654,257.086 35.903 C 257.409 36.115,257.982 36.230,258.983 36.286 C 259.978 36.340,260.544 36.454,260.834 36.657 C 261.098 36.842,261.698 36.981,262.467 37.036 C 263.398 37.103,263.771 37.206,264.060 37.478 C 264.332 37.733,264.652 37.833,265.197 37.833 C 265.703 37.833,266.096 37.944,266.379 38.167 C 266.612 38.350,266.903 38.502,267.026 38.504 C 267.149 38.506,267.418 38.637,267.623 38.795 L 267.997 39.083 268.107 47.833 C 268.221 56.864,268.155 58.784,267.729 58.948 C 267.418 59.067,266.044 58.544,265.661 58.161 C 265.499 57.999,265.190 57.813,264.975 57.747 C 264.759 57.682,264.433 57.495,264.250 57.332 C 264.067 57.169,263.681 56.986,263.392 56.925 C 263.104 56.864,262.736 56.669,262.575 56.491 C 262.414 56.312,262.071 56.167,261.814 56.167 C 261.557 56.167,261.212 56.025,261.048 55.852 C 260.884 55.679,260.433 55.486,260.047 55.422 C 259.660 55.358,259.160 55.162,258.937 54.986 C 258.714 54.810,258.273 54.667,257.957 54.667 C 257.641 54.667,257.052 54.490,256.647 54.275 C 256.151 54.011,255.519 53.856,254.710 53.798 C 254.051 53.751,253.339 53.600,253.130 53.464 C 252.889 53.307,252.081 53.173,250.917 53.099 C 249.908 53.035,248.633 52.914,248.083 52.831 C 245.932 52.505,239.040 52.956,238.000 53.490 C 237.679 53.655,237.062 53.836,236.629 53.891 C 236.169 53.950,235.700 54.133,235.504 54.330 C 235.318 54.515,234.960 54.667,234.707 54.667 C 234.427 54.667,234.165 54.797,234.039 55.000 C 233.924 55.183,233.731 55.333,233.609 55.333 C 233.415 55.333,231.577 57.084,230.567 58.231 C 230.341 58.488,230.183 58.956,230.122 59.553 C 230.069 60.061,229.899 60.745,229.744 61.072 C 229.483 61.623,229.482 61.708,229.732 62.236 C 229.881 62.550,230.049 63.168,230.106 63.611 C 230.174 64.139,230.417 64.724,230.813 65.308 C 231.145 65.799,231.532 66.374,231.673 66.587 C 231.960 67.019,232.762 67.759,234.004 68.736 C 234.460 69.094,234.833 69.451,234.833 69.527 C 234.833 69.604,234.965 69.667,235.125 69.667 C 235.285 69.667,235.635 69.854,235.901 70.084 C 236.167 70.313,236.485 70.500,236.608 70.500 C 236.730 70.500,236.924 70.650,237.039 70.833 C 237.153 71.017,237.420 71.167,237.631 71.167 C 237.842 71.167,238.203 71.354,238.432 71.583 C 238.661 71.813,239.018 72.000,239.226 72.000 C 239.434 72.000,239.749 72.134,239.927 72.297 C 240.105 72.460,240.569 72.688,240.958 72.804 C 241.372 72.926,241.667 73.114,241.667 73.257 C 241.667 73.423,241.849 73.500,242.241 73.500 C 242.623 73.500,242.967 73.640,243.266 73.917 C 243.516 74.149,243.916 74.333,244.169 74.333 C 244.418 74.333,244.805 74.477,245.028 74.653 C 245.252 74.829,245.722 75.027,246.073 75.092 C 246.425 75.158,246.852 75.352,247.023 75.523 C 247.194 75.694,247.521 75.833,247.750 75.833 C 247.979 75.833,248.319 75.986,248.505 76.172 C 248.691 76.358,249.085 76.556,249.380 76.611 C 249.675 76.666,250.067 76.845,250.250 77.009 C 250.433 77.172,250.860 77.357,251.197 77.420 C 251.535 77.482,251.941 77.676,252.098 77.850 C 252.256 78.024,252.513 78.167,252.670 78.167 C 252.827 78.167,253.134 78.306,253.353 78.476 C 253.571 78.646,254.025 78.874,254.360 78.984 C 254.696 79.093,255.012 79.292,255.063 79.425 C 255.114 79.558,255.303 79.667,255.482 79.667 C 255.661 79.667,256.031 79.854,256.303 80.083 C 256.575 80.313,256.913 80.500,257.053 80.500 C 257.193 80.500,257.531 80.688,257.803 80.917 C 258.075 81.146,258.380 81.333,258.481 81.333 C 258.582 81.333,258.758 81.483,258.872 81.667 C 258.987 81.850,259.176 82.000,259.294 82.000 C 259.504 82.000,261.170 83.079,261.333 83.322 C 261.379 83.390,261.539 83.514,261.688 83.598 C 262.613 84.117,266.575 87.950,266.747 88.492 C 266.807 88.680,266.930 88.833,267.020 88.833 C 267.110 88.833,267.293 89.096,267.427 89.417 C 267.561 89.738,267.749 90.000,267.844 90.000 C 267.939 90.000,268.121 90.250,268.249 90.555 C 268.376 90.860,268.598 91.207,268.740 91.325 C 268.883 91.444,269.000 91.670,269.000 91.828 C 269.000 91.986,269.149 92.249,269.330 92.414 C 269.512 92.578,269.710 92.983,269.771 93.315 C 269.832 93.646,270.021 94.096,270.191 94.314 C 270.366 94.539,270.500 94.982,270.500 95.333 C 270.500 95.719,270.637 96.130,270.862 96.415 C 271.131 96.757,271.256 97.224,271.349 98.230 C 271.417 98.974,271.605 99.921,271.767 100.333 C 272.213 101.472,272.207 108.481,271.759 109.336 C 271.566 109.706,271.414 110.484,271.341 111.480 C 271.252 112.698,271.161 113.092,270.930 113.261 C 270.731 113.407,270.593 113.817,270.511 114.508 C 270.429 115.204,270.300 115.589,270.112 115.694 C 269.948 115.786,269.833 116.056,269.833 116.350 C 269.833 116.668,269.683 116.989,269.417 117.235 C 269.181 117.454,269.000 117.807,269.000 118.049 C 269.000 118.284,268.869 118.605,268.708 118.762 C 268.548 118.920,268.304 119.252,268.167 119.501 C 267.664 120.411,266.992 121.333,266.831 121.333 C 266.741 121.333,266.667 121.444,266.667 121.579 C 266.667 121.715,266.487 121.943,266.267 122.087 C 266.048 122.231,265.830 122.495,265.783 122.674 C 265.736 122.853,265.578 123.000,265.432 123.000 C 265.286 123.000,265.167 123.110,265.167 123.244 C 265.167 123.378,265.009 123.573,264.816 123.676 C 264.623 123.779,264.149 124.194,263.761 124.598 C 263.374 125.003,263.010 125.333,262.953 125.333 C 262.895 125.333,262.662 125.502,262.434 125.708 C 262.206 125.915,261.830 126.252,261.599 126.458 C 261.368 126.665,261.055 126.833,260.905 126.833 C 260.754 126.833,260.484 127.021,260.304 127.250 C 260.123 127.479,259.866 127.667,259.731 127.667 C 259.596 127.667,259.325 127.817,259.128 128.000 C 258.931 128.183,258.664 128.333,258.534 128.333 C 258.404 128.333,258.075 128.521,257.803 128.750 C 257.531 128.979,257.136 129.167,256.926 129.167 C 256.717 129.167,256.357 129.314,256.128 129.494 C 255.899 129.675,255.390 129.874,254.997 129.936 C 254.604 129.999,254.156 130.177,254.001 130.332 C 253.846 130.487,253.330 130.660,252.853 130.717 C 252.368 130.774,251.797 130.969,251.555 131.160 C 251.238 131.409,250.876 131.500,250.206 131.500 C 249.591 131.500,249.118 131.606,248.769 131.822 C 248.377 132.064,247.782 132.173,246.374 132.262 C 245.343 132.327,244.500 132.438,244.500 132.507 C 244.500 133.242,225.212 133.361,223.667 132.636 C 223.287 132.458,222.384 132.323,221.083 132.251 C 219.544 132.165,218.964 132.066,218.564 131.820 C 218.198 131.595,217.738 131.500,217.011 131.500 C 216.045 131.500,215.377 131.310,215.155 130.972 C 215.103 130.893,214.548 130.766,213.922 130.691 C 213.223 130.607,212.713 130.455,212.598 130.298 C 212.495 130.157,212.024 129.989,211.552 129.924 C 211.037 129.853,210.578 129.678,210.404 129.486 C 210.229 129.292,209.895 129.167,209.556 129.167 C 209.203 129.167,208.891 129.044,208.712 128.834 C 208.555 128.651,208.184 128.456,207.887 128.400 C 207.459 128.320,207.275 128.152,207.006 127.597 C 206.538 126.628,206.466 106.613,206.930 106.434 C 207.653 106.157,208.219 106.482,209.934 108.157 C 210.127 108.346,210.390 108.501,210.518 108.502 C 210.752 108.504,211.387 108.949,212.092 109.603 C 212.301 109.798,212.652 110.002,212.872 110.057 C 213.092 110.112,213.447 110.310,213.661 110.495 C 213.876 110.681,214.190 110.833,214.359 110.833 C 214.528 110.833,214.813 110.979,214.991 111.158 C 215.170 111.336,215.614 111.563,215.978 111.661 C 216.343 111.759,216.667 111.917,216.698 112.012 C 216.730 112.107,217.092 112.259,217.503 112.349 C 217.914 112.439,218.326 112.613,218.419 112.734 C 218.512 112.856,218.992 113.042,219.486 113.148 C 219.981 113.254,220.468 113.440,220.568 113.561 C 220.668 113.681,221.220 113.863,221.794 113.964 C 222.368 114.065,222.955 114.264,223.097 114.407 C 223.257 114.567,223.658 114.668,224.137 114.671 C 225.155 114.676,226.180 114.919,226.352 115.196 C 226.588 115.579,238.943 115.512,239.511 115.126 C 239.747 114.966,240.409 114.785,240.983 114.725 C 241.557 114.665,242.134 114.509,242.265 114.378 C 242.397 114.246,242.783 114.062,243.124 113.967 C 243.466 113.873,243.925 113.654,244.145 113.481 C 244.365 113.308,244.656 113.167,244.791 113.167 C 245.068 113.167,247.500 110.801,247.500 110.532 C 247.500 110.437,247.676 110.147,247.892 109.888 C 248.650 108.978,248.798 103.500,248.065 103.500 C 247.789 103.500,247.500 102.976,247.499 102.469 C 247.498 102.222,247.228 101.845,246.749 101.422 C 246.337 101.058,246.000 100.665,246.000 100.547 C 246.000 100.429,245.914 100.333,245.808 100.333 C 245.703 100.333,245.298 99.996,244.908 99.583 C 244.518 99.171,244.085 98.833,243.944 98.833 C 243.804 98.833,243.642 98.683,243.583 98.500 C 243.525 98.315,243.331 98.167,243.148 98.167 C 242.967 98.167,242.631 97.979,242.402 97.750 C 242.172 97.521,241.890 97.333,241.775 97.333 C 241.659 97.333,241.311 97.146,241.000 96.917 C 240.689 96.687,240.342 96.500,240.227 96.500 C 240.113 96.500,239.921 96.360,239.801 96.189 C 239.681 96.018,239.321 95.822,239.000 95.753 C 238.679 95.684,238.282 95.487,238.119 95.314 C 237.955 95.141,237.650 95.000,237.443 95.000 C 237.235 95.000,236.811 94.812,236.500 94.583 C 236.189 94.354,235.772 94.167,235.573 94.167 C 235.374 94.167,235.021 94.017,234.788 93.833 C 234.555 93.650,234.213 93.500,234.028 93.500 C 233.843 93.500,233.469 93.313,233.197 93.083 C 232.901 92.835,232.493 92.667,232.184 92.667 C 231.890 92.667,231.524 92.524,231.336 92.336 C 231.154 92.154,230.708 91.957,230.346 91.899 C 229.984 91.841,229.536 91.653,229.351 91.480 C 229.165 91.308,228.856 91.167,228.663 91.167 C 228.234 91.167,227.630 90.864,227.450 90.559 C 227.377 90.435,227.107 90.333,226.851 90.333 C 226.595 90.333,226.256 90.191,226.098 90.017 C 225.941 89.842,225.552 89.651,225.235 89.592 C 224.918 89.532,224.568 89.337,224.456 89.158 C 224.333 88.961,224.069 88.833,223.785 88.833 C 223.500 88.833,223.166 88.670,222.931 88.417 C 222.719 88.188,222.389 88.000,222.198 88.000 C 222.007 88.000,221.648 87.813,221.401 87.583 C 221.154 87.354,220.861 87.167,220.751 87.167 C 220.642 87.167,220.416 87.017,220.250 86.833 C 220.084 86.650,219.853 86.500,219.737 86.500 C 219.621 86.500,219.303 86.312,219.030 86.083 C 218.758 85.854,218.457 85.667,218.360 85.667 C 218.264 85.667,218.088 85.532,217.968 85.367 C 217.848 85.202,217.506 84.967,217.208 84.846 C 216.910 84.725,216.667 84.523,216.667 84.396 C 216.667 84.270,216.589 84.167,216.493 84.167 C 216.398 84.167,215.951 83.792,215.500 83.333 C 215.049 82.875,214.631 82.500,214.571 82.500 C 214.426 82.500,213.333 81.303,213.333 81.145 C 213.333 81.078,213.183 80.975,213.000 80.917 C 212.817 80.858,212.667 80.742,212.667 80.658 C 212.667 80.574,212.327 80.151,211.911 79.717 C 211.495 79.283,211.111 78.755,211.058 78.543 C 211.005 78.331,210.820 78.082,210.647 77.990 C 210.475 77.897,210.333 77.723,210.333 77.602 C 210.333 77.481,210.146 77.180,209.917 76.932 C 209.688 76.685,209.500 76.329,209.500 76.140 C 209.500 75.952,209.313 75.575,209.083 75.303 C 208.854 75.031,208.667 74.626,208.667 74.404 C 208.667 74.182,208.522 73.855,208.345 73.679 C 208.169 73.502,207.972 72.996,207.908 72.554 C 207.845 72.112,207.676 71.617,207.533 71.454 C 207.374 71.272,207.231 70.661,207.164 69.870 C 207.098 69.104,206.925 68.347,206.735 68.000 C 206.210 67.039,206.255 59.558,206.792 58.537 C 207.058 58.030,207.167 57.537,207.167 56.836 C 207.167 55.896,207.414 55.000,207.674 55.000 C 207.741 55.000,207.846 54.595,207.907 54.100 C 207.978 53.531,208.139 53.093,208.343 52.908 C 208.521 52.747,208.667 52.472,208.667 52.297 C 208.667 51.896,208.978 51.292,209.274 51.117 C 209.398 51.043,209.500 50.804,209.500 50.584 C 209.500 50.364,209.688 49.982,209.917 49.734 C 210.146 49.487,210.333 49.184,210.333 49.060 C 210.333 48.937,210.483 48.742,210.667 48.628 C 210.850 48.513,211.000 48.300,211.000 48.153 C 211.000 48.006,211.341 47.525,211.758 47.084 C 212.175 46.642,212.590 46.143,212.681 45.974 C 212.771 45.805,212.955 45.667,213.089 45.667 C 213.223 45.667,213.333 45.592,213.333 45.500 C 213.333 45.283,214.616 44.000,214.833 44.000 C 214.925 44.000,215.000 43.886,215.000 43.746 C 215.000 43.607,215.188 43.407,215.417 43.303 C 215.646 43.199,215.833 43.063,215.833 43.001 C 215.833 42.845,217.565 41.667,217.794 41.667 C 217.897 41.667,218.082 41.522,218.206 41.345 C 218.330 41.168,218.629 40.974,218.870 40.913 C 219.111 40.853,219.438 40.660,219.597 40.485 C 219.755 40.310,220.012 40.167,220.167 40.167 C 220.322 40.167,220.583 40.018,220.747 39.837 C 220.911 39.655,221.293 39.460,221.595 39.403 C 221.898 39.347,222.269 39.163,222.421 38.996 C 222.572 38.828,223.008 38.638,223.390 38.574 C 223.771 38.510,224.262 38.317,224.481 38.145 C 224.699 37.974,225.103 37.833,225.378 37.833 C 225.653 37.833,226.135 37.674,226.449 37.480 C 226.810 37.257,227.416 37.095,228.094 37.040 C 228.684 36.993,229.167 36.899,229.167 36.831 C 229.167 36.597,230.086 36.358,231.260 36.287 C 232.033 36.240,232.601 36.108,232.915 35.902 C 233.315 35.640,233.831 35.574,236.072 35.499 C 237.545 35.449,238.851 35.345,238.975 35.267 C 239.731 34.793,246.801 34.678,249.333 35.099 M127.407 36.704 C 127.749 37.191,127.806 54.128,127.467 54.467 C 127.314 54.619,124.126 54.667,114.133 54.667 L 101.000 54.667 101.000 92.779 C 101.000 128.008,100.979 130.913,100.724 131.195 C 100.318 131.644,79.299 131.672,78.805 131.224 C 78.511 130.958,78.500 129.546,78.500 92.808 L 78.500 54.667 65.367 54.667 C 55.374 54.667,52.186 54.619,52.033 54.467 C 51.680 54.113,51.753 37.032,52.109 36.638 C 52.375 36.345,53.764 36.333,89.766 36.333 L 127.148 36.333 127.407 36.704 M194.443 37.083 C 194.938 37.991,195.047 53.519,194.564 54.256 L 194.295 54.667 178.063 54.667 L 161.831 54.667 161.874 64.708 L 161.917 74.750 176.858 74.833 C 191.253 74.914,191.811 74.928,192.149 75.234 C 192.641 75.680,192.709 91.982,192.220 92.470 C 191.963 92.727,190.721 92.754,176.887 92.795 L 161.833 92.840 161.833 103.087 L 161.833 113.333 178.988 113.333 L 196.142 113.333 196.488 113.772 C 196.831 114.209,197.057 130.389,196.732 131.236 C 196.590 131.608,139.994 131.645,139.686 131.274 C 139.380 130.905,139.506 36.978,139.812 36.608 C 140.024 36.353,142.080 36.336,167.061 36.374 L 194.080 36.417 194.443 37.083 M353.362 36.609 C 353.800 37.006,353.840 54.398,353.403 54.566 C 353.258 54.621,347.258 54.667,340.070 54.667 L 327.000 54.667 327.000 92.779 C 327.000 128.008,326.979 130.913,326.724 131.195 C 326.318 131.644,305.299 131.672,304.805 131.224 C 304.511 130.958,304.500 129.546,304.500 92.808 L 304.500 54.667 291.367 54.667 C 281.374 54.667,278.186 54.619,278.033 54.467 C 277.680 54.113,277.753 37.032,278.109 36.638 C 278.518 36.187,352.864 36.158,353.362 36.609 " stroke="none" fill="#fbfbfb" fill-rule="evenodd"></path><path id="path2" d="M241.667 35.333 C 240.920 35.397,242.028 35.442,244.417 35.444 C 247.304 35.447,248.023 35.414,247.000 35.324 C 245.351 35.179,243.433 35.183,241.667 35.333 M238.042 35.621 C 238.385 35.657,238.948 35.657,239.292 35.621 C 239.635 35.585,239.354 35.556,238.667 35.556 C 237.979 35.556,237.698 35.585,238.042 35.621 M249.792 35.622 C 250.181 35.657,250.819 35.657,251.208 35.622 C 251.598 35.587,251.279 35.558,250.500 35.558 C 249.721 35.558,249.402 35.587,249.792 35.622 M234.500 35.838 C 233.531 36.008,232.761 36.307,233.251 36.323 C 233.435 36.329,233.848 36.253,234.168 36.156 C 234.488 36.058,235.275 35.918,235.917 35.845 C 237.074 35.713,237.076 35.712,236.167 35.709 C 235.662 35.707,234.912 35.765,234.500 35.838 M252.955 35.787 C 253.250 35.824,253.775 35.824,254.121 35.788 C 254.467 35.752,254.225 35.722,253.583 35.721 C 252.942 35.721,252.659 35.750,252.955 35.787 M255.583 36.095 C 256.673 36.398,257.305 36.381,256.333 36.075 C 255.921 35.945,255.396 35.844,255.167 35.851 C 254.897 35.859,255.045 35.945,255.583 36.095 M231.875 36.448 C 232.035 36.490,232.298 36.490,232.458 36.448 C 232.619 36.406,232.487 36.372,232.167 36.372 C 231.846 36.372,231.715 36.406,231.875 36.448 M258.417 36.581 C 259.058 36.698,259.845 36.878,260.166 36.980 C 260.486 37.083,260.898 37.159,261.082 37.150 C 261.773 37.114,258.498 36.333,257.750 36.355 C 257.475 36.363,257.775 36.465,258.417 36.581 M230.500 36.610 C 230.362 36.656,230.146 36.726,230.018 36.767 C 229.410 36.961,230.016 36.944,230.750 36.747 C 231.216 36.621,231.400 36.523,231.167 36.524 C 230.938 36.525,230.637 36.564,230.500 36.610 M52.163 37.094 C 51.911 37.757,51.946 54.046,52.200 54.300 C 52.353 54.453,55.449 54.491,65.325 54.460 L 78.250 54.420 65.250 54.335 L 52.250 54.250 52.204 46.000 C 52.178 41.462,52.199 37.581,52.249 37.375 L 52.340 37.000 89.742 37.000 L 127.144 37.000 127.254 37.346 C 127.314 37.536,127.407 37.649,127.460 37.596 C 127.513 37.543,127.456 37.312,127.333 37.083 L 127.110 36.667 89.718 36.667 L 52.325 36.667 52.163 37.094 M139.997 36.921 C 139.881 37.060,139.834 37.223,139.893 37.282 C 139.952 37.341,140.000 37.301,140.000 37.194 C 140.000 37.047,146.533 37.000,166.972 37.000 L 193.944 37.000 194.143 37.375 C 194.291 37.655,194.330 39.853,194.296 46.026 C 194.271 50.578,194.306 54.267,194.375 54.224 C 194.723 54.009,194.511 37.559,194.155 37.106 L 193.809 36.667 167.008 36.667 C 143.200 36.667,140.184 36.695,139.997 36.921 M278.193 37.091 C 277.912 37.708,277.919 54.019,278.200 54.300 C 278.353 54.453,281.449 54.491,291.325 54.460 L 304.250 54.420 291.250 54.335 L 278.250 54.250 278.204 46.000 C 278.178 41.462,278.199 37.581,278.249 37.375 L 278.340 37.000 315.759 37.000 L 353.177 37.000 353.328 37.375 C 353.411 37.581,353.484 37.651,353.489 37.531 C 353.535 36.589,356.927 36.667,315.771 36.667 L 278.387 36.667 278.193 37.091 M228.500 37.167 C 227.935 37.286,227.932 37.290,228.417 37.295 C 228.692 37.298,229.104 37.240,229.333 37.167 C 229.880 36.992,229.331 36.992,228.500 37.167 M261.708 37.282 C 261.869 37.323,262.131 37.323,262.292 37.282 C 262.452 37.240,262.321 37.205,262.000 37.205 C 261.679 37.205,261.548 37.240,261.708 37.282 M227.100 37.527 C 226.925 37.629,226.367 37.820,225.858 37.953 C 225.349 38.086,224.782 38.301,224.596 38.431 C 224.167 38.731,224.380 38.736,224.967 38.439 C 225.214 38.314,225.792 38.122,226.250 38.013 C 227.128 37.803,228.098 37.346,227.667 37.344 C 227.529 37.344,227.274 37.426,227.100 37.527 M263.061 37.584 C 263.673 37.904,263.994 37.906,263.574 37.589 C 263.396 37.454,263.100 37.342,262.917 37.340 C 262.650 37.336,262.679 37.385,263.061 37.584 M139.708 84.188 C 139.669 128.562,139.682 130.971,139.958 131.188 C 140.217 131.391,140.226 131.386,140.042 131.150 C 139.877 130.939,139.825 121.196,139.792 84.150 L 139.749 37.417 139.708 84.188 M264.917 38.114 C 265.100 38.155,265.500 38.303,265.805 38.442 C 266.111 38.581,266.394 38.661,266.436 38.619 C 266.569 38.487,265.382 37.999,264.975 38.019 C 264.638 38.036,264.630 38.049,264.917 38.114 M222.750 39.161 C 221.557 39.744,221.683 39.838,222.901 39.272 C 223.368 39.054,223.862 38.835,224.000 38.785 C 224.222 38.703,224.222 38.692,224.000 38.682 C 223.862 38.676,223.300 38.891,222.750 39.161 M266.958 38.870 C 267.259 39.015,267.339 39.203,267.362 39.817 L 267.392 40.583 267.457 39.839 C 267.522 39.102,267.248 38.647,266.760 38.678 C 266.663 38.684,266.752 38.771,266.958 38.870 M221.253 39.829 C 221.198 39.918,220.837 40.145,220.451 40.334 C 219.235 40.929,218.764 41.206,218.279 41.609 C 217.679 42.107,217.867 42.118,218.557 41.625 C 219.265 41.119,219.946 40.726,220.773 40.345 C 221.447 40.035,221.852 39.667,221.520 39.667 C 221.428 39.667,221.308 39.740,221.253 39.829 M217.079 42.389 C 215.389 43.598,212.985 45.928,211.708 47.594 C 210.947 48.587,209.702 50.596,209.597 51.000 C 209.522 51.285,209.586 51.229,209.798 50.823 C 210.969 48.577,215.371 43.356,216.117 43.328 C 216.190 43.326,216.588 43.028,217.000 42.667 C 217.826 41.944,217.857 41.832,217.079 42.389 M267.540 50.925 C 267.510 56.108,267.448 57.985,267.300 58.133 C 266.980 58.453,266.590 58.369,265.917 57.833 C 265.571 57.558,265.192 57.333,265.074 57.333 C 264.957 57.333,264.836 57.275,264.806 57.203 C 264.775 57.131,264.150 56.787,263.417 56.440 C 262.683 56.092,261.872 55.694,261.613 55.554 C 261.355 55.415,261.107 55.337,261.063 55.381 C 261.019 55.426,261.343 55.626,261.783 55.826 C 262.223 56.026,262.696 56.260,262.833 56.346 C 263.074 56.495,263.265 56.587,264.167 56.986 C 264.718 57.230,265.646 57.793,266.144 58.185 C 267.593 59.324,267.677 58.907,267.625 50.883 L 267.580 43.917 267.540 50.925 M244.042 52.291 C 244.844 52.321,246.156 52.321,246.958 52.291 C 247.760 52.260,247.104 52.235,245.500 52.235 C 243.896 52.235,243.240 52.260,244.042 52.291 M208.552 53.122 C 208.352 53.559,208.067 54.329,207.918 54.833 C 207.769 55.337,207.604 55.854,207.552 55.982 C 207.498 56.113,207.530 56.168,207.626 56.108 C 207.719 56.051,207.931 55.497,208.098 54.877 C 208.264 54.257,208.542 53.508,208.715 53.211 C 208.888 52.915,209.004 52.595,208.972 52.500 C 208.941 52.405,208.751 52.685,208.552 53.122 M240.333 52.592 C 239.587 52.806,239.586 52.807,240.167 52.807 C 240.487 52.807,241.050 52.709,241.417 52.588 C 242.354 52.279,241.413 52.282,240.333 52.592 M248.822 52.516 C 249.044 52.605,249.682 52.713,250.238 52.756 L 251.250 52.834 250.250 52.594 C 249.700 52.463,249.063 52.355,248.833 52.355 L 248.417 52.354 248.822 52.516 M237.000 53.278 C 236.313 53.508,235.600 53.778,235.417 53.879 C 235.233 53.980,234.821 54.201,234.500 54.371 C 234.076 54.594,234.030 54.650,234.333 54.575 C 234.563 54.518,234.938 54.340,235.167 54.179 C 235.396 54.018,235.996 53.789,236.500 53.671 C 237.004 53.553,237.502 53.389,237.607 53.306 C 237.712 53.223,238.125 53.091,238.524 53.013 C 239.088 52.902,239.138 52.869,238.750 52.866 C 238.475 52.863,237.688 53.049,237.000 53.278 M251.960 52.951 C 252.168 52.991,252.468 52.990,252.627 52.948 C 252.786 52.906,252.617 52.874,252.250 52.875 C 251.883 52.877,251.753 52.911,251.960 52.951 M253.583 53.241 C 253.950 53.381,254.362 53.494,254.500 53.492 C 254.958 53.488,254.315 53.207,253.583 53.092 L 252.917 52.988 253.583 53.241 M255.042 53.615 C 255.202 53.657,255.465 53.657,255.625 53.615 C 255.785 53.573,255.654 53.539,255.333 53.539 C 255.012 53.539,254.881 53.573,255.042 53.615 M256.386 53.836 C 256.644 53.914,256.944 54.048,257.052 54.136 C 257.285 54.323,259.014 54.708,259.125 54.598 C 259.167 54.556,258.912 54.468,258.559 54.402 C 258.206 54.337,257.592 54.144,257.195 53.975 C 256.797 53.805,256.347 53.673,256.195 53.681 C 256.042 53.689,256.128 53.759,256.386 53.836 M127.232 54.168 C 127.129 54.271,122.281 54.347,114.159 54.375 L 101.250 54.419 114.167 54.457 C 125.959 54.492,127.830 54.441,127.484 54.095 C 127.435 54.046,127.321 54.079,127.232 54.168 M169.958 54.458 C 174.381 54.483,181.619 54.483,186.042 54.458 C 190.465 54.434,186.846 54.413,178.000 54.413 C 169.154 54.413,165.535 54.434,169.958 54.458 M333.804 54.458 C 337.409 54.483,343.259 54.483,346.804 54.458 C 350.349 54.433,347.400 54.413,340.250 54.413 C 333.100 54.413,330.199 54.433,333.804 54.458 M100.444 54.611 C 100.383 54.672,100.333 71.881,100.333 92.853 C 100.333 128.992,100.318 130.992,100.042 131.153 C 99.881 131.247,99.829 131.325,99.925 131.328 C 100.505 131.345,100.500 131.668,100.500 92.812 L 100.500 54.690 100.875 54.618 C 101.223 54.551,101.225 54.544,100.903 54.523 C 100.712 54.510,100.506 54.550,100.444 54.611 M304.542 54.615 C 304.818 54.687,304.833 56.641,304.833 92.690 C 304.833 130.487,304.845 131.333,305.373 131.333 C 305.517 131.333,305.516 131.282,305.367 131.133 C 305.212 130.979,305.167 122.241,305.167 92.818 C 305.167 51.969,305.213 54.443,304.445 54.519 C 304.338 54.530,304.381 54.573,304.542 54.615 M161.411 64.700 C 161.416 72.772,161.460 74.861,161.633 75.033 C 161.807 75.207,164.860 75.267,176.883 75.333 L 191.917 75.417 191.960 83.731 C 191.991 89.732,191.951 92.109,191.814 92.273 C 191.658 92.462,189.096 92.500,176.667 92.500 C 164.153 92.500,161.676 92.538,161.517 92.730 C 161.213 93.096,161.337 113.353,161.645 113.724 C 161.855 113.977,163.281 114.000,179.086 114.000 C 194.627 114.000,196.307 114.026,196.399 114.264 C 196.613 114.822,196.511 130.921,196.292 131.167 C 196.114 131.366,196.127 131.368,196.375 131.180 C 196.721 130.918,196.834 114.791,196.494 114.156 C 196.325 113.840,195.956 113.833,179.087 113.833 C 165.483 113.833,161.825 113.789,161.718 113.625 C 161.557 113.376,161.435 94.801,161.586 93.542 L 161.691 92.667 176.653 92.667 C 190.936 92.667,191.628 92.653,191.891 92.362 C 192.247 91.968,192.320 75.720,191.967 75.367 C 191.814 75.214,188.243 75.166,176.925 75.164 C 167.868 75.163,161.986 75.100,161.833 75.004 C 161.617 74.867,161.571 73.473,161.494 64.714 L 161.405 54.583 161.411 64.700 M232.809 55.377 C 231.623 56.267,230.045 57.934,230.222 58.111 C 230.265 58.154,230.439 57.995,230.609 57.757 C 231.000 57.207,232.009 56.171,232.522 55.792 C 233.205 55.287,233.920 54.677,233.833 54.674 C 233.787 54.672,233.327 54.988,232.809 55.377 M259.423 54.843 C 259.519 55.000,260.661 55.395,260.752 55.304 C 260.787 55.269,260.483 55.121,260.078 54.976 C 259.673 54.830,259.378 54.770,259.423 54.843 M326.375 92.758 C 326.342 122.892,326.290 130.984,326.126 131.175 C 325.982 131.344,326.007 131.339,326.210 131.160 C 326.485 130.918,326.498 128.867,326.458 92.744 L 326.416 54.583 326.375 92.758 M207.372 56.833 C 207.372 57.154,207.406 57.285,207.448 57.125 C 207.490 56.965,207.490 56.702,207.448 56.542 C 207.406 56.381,207.372 56.512,207.372 56.833 M207.205 58.167 C 207.205 58.487,207.240 58.619,207.282 58.458 C 207.323 58.298,207.323 58.035,207.282 57.875 C 207.240 57.715,207.205 57.846,207.205 58.167 M229.902 58.772 C 229.839 59.035,229.723 59.333,229.644 59.433 C 229.565 59.534,229.472 59.947,229.437 60.350 C 229.402 60.753,229.408 60.933,229.451 60.750 C 229.494 60.567,229.677 59.977,229.856 59.439 C 230.036 58.901,230.146 58.423,230.100 58.378 C 230.054 58.332,229.965 58.509,229.902 58.772 M206.853 59.574 C 206.751 59.981,206.678 60.975,206.691 61.782 L 206.716 63.250 206.836 61.833 C 206.902 61.054,207.012 60.060,207.080 59.625 C 207.237 58.627,207.099 58.596,206.853 59.574 M229.361 62.583 C 229.355 62.858,229.529 63.533,229.747 64.083 C 230.195 65.213,230.306 65.149,229.891 64.000 C 229.741 63.587,229.564 62.987,229.495 62.667 C 229.374 62.096,229.371 62.094,229.361 62.583 M206.708 64.917 C 206.703 65.650,206.801 66.625,206.927 67.083 L 207.155 67.917 207.061 67.000 C 207.009 66.496,206.910 65.521,206.842 64.833 L 206.717 63.583 206.708 64.917 M230.447 65.625 C 231.408 67.155,235.951 71.269,235.563 70.258 C 235.512 70.123,235.327 69.967,235.152 69.912 C 234.978 69.857,234.741 69.723,234.626 69.614 C 234.511 69.506,233.880 68.988,233.223 68.463 C 232.567 67.939,231.638 66.983,231.159 66.338 C 230.269 65.142,229.930 64.802,230.447 65.625 M207.372 69.667 C 207.372 69.987,207.406 70.119,207.448 69.958 C 207.490 69.798,207.490 69.535,207.448 69.375 C 207.406 69.215,207.372 69.346,207.372 69.667 M207.506 70.439 C 207.503 70.543,207.612 70.843,207.749 71.106 C 207.886 71.369,207.996 71.471,207.993 71.333 C 207.987 71.034,207.514 70.167,207.506 70.439 M236.331 70.915 C 236.640 71.143,237.049 71.378,237.238 71.437 C 237.428 71.496,237.782 71.684,238.026 71.855 C 238.691 72.324,238.817 72.230,238.167 71.750 C 237.856 71.521,237.519 71.333,237.417 71.333 C 237.315 71.333,236.977 71.146,236.667 70.917 C 236.356 70.688,236.027 70.500,235.935 70.500 C 235.844 70.500,236.022 70.687,236.331 70.915 M208.011 71.880 C 207.998 72.226,208.435 73.333,208.585 73.333 C 208.641 73.333,208.633 73.248,208.568 73.143 C 208.504 73.038,208.354 72.644,208.236 72.268 C 208.119 71.891,208.017 71.717,208.011 71.880 M239.472 72.546 C 239.594 72.695,239.969 72.905,240.305 73.013 C 240.641 73.121,241.010 73.285,241.125 73.375 C 241.264 73.486,241.333 73.483,241.333 73.367 C 241.333 73.271,241.052 73.103,240.708 72.994 C 240.365 72.885,239.896 72.679,239.667 72.536 C 239.284 72.296,239.268 72.297,239.472 72.546 M242.667 74.083 C 242.781 74.221,242.949 74.333,243.041 74.333 C 243.134 74.333,243.116 74.223,243.000 74.083 C 242.886 73.946,242.718 73.833,242.626 73.833 C 242.533 73.833,242.551 73.944,242.667 74.083 M244.535 74.917 C 244.966 75.146,245.408 75.333,245.517 75.333 C 245.627 75.333,245.364 75.146,244.933 74.917 C 244.502 74.688,244.060 74.500,243.951 74.500 C 243.842 74.500,244.105 74.688,244.535 74.917 M209.514 75.364 C 209.492 75.547,209.813 76.324,210.002 76.546 C 210.097 76.658,210.413 77.125,210.702 77.583 C 212.526 80.467,218.236 85.828,220.142 86.446 C 220.431 86.539,220.158 86.335,218.558 85.263 C 216.013 83.555,212.455 80.026,210.984 77.750 C 210.086 76.359,209.911 76.072,209.722 75.667 C 209.615 75.438,209.521 75.301,209.514 75.364 M246.250 75.657 C 246.525 75.833,246.975 76.019,247.250 76.072 L 247.750 76.169 247.250 75.979 C 246.975 75.875,246.632 75.687,246.487 75.562 C 246.342 75.436,246.117 75.335,245.987 75.336 C 245.857 75.338,245.975 75.482,246.250 75.657 M247.833 76.238 C 247.833 76.360,250.214 77.508,250.296 77.426 C 250.342 77.380,249.238 76.800,247.958 76.198 C 247.890 76.165,247.833 76.183,247.833 76.238 M251.178 77.876 C 251.596 78.105,252.121 78.338,252.344 78.394 C 252.733 78.492,252.732 78.488,252.316 78.290 C 252.077 78.176,251.777 77.996,251.648 77.888 C 251.520 77.781,251.190 77.641,250.916 77.577 C 250.512 77.483,250.563 77.540,251.178 77.876 M252.925 78.653 C 253.012 78.737,253.440 78.998,253.877 79.233 C 254.856 79.760,255.948 80.360,256.500 80.674 C 257.798 81.412,261.691 84.079,262.313 84.656 C 262.714 85.029,263.075 85.333,263.116 85.333 C 264.062 85.333,268.556 91.445,269.733 94.333 C 269.789 94.471,269.792 94.358,269.739 94.083 C 269.685 93.808,269.538 93.396,269.410 93.167 C 269.283 92.938,269.061 92.525,268.916 92.250 C 268.634 91.711,268.134 90.930,267.086 89.392 C 266.233 88.137,262.737 84.622,261.395 83.669 C 261.200 83.530,260.563 83.101,259.979 82.714 C 259.395 82.328,258.842 81.952,258.750 81.878 C 258.316 81.531,256.869 80.667,256.720 80.667 C 256.627 80.667,256.422 80.523,256.264 80.348 C 256.105 80.173,255.795 79.985,255.575 79.930 C 255.355 79.874,254.900 79.643,254.564 79.415 C 254.228 79.187,253.861 79.000,253.747 79.000 C 253.634 79.000,253.447 78.887,253.333 78.750 C 253.219 78.612,253.045 78.500,252.946 78.500 C 252.833 78.500,252.825 78.557,252.925 78.653 M221.417 87.273 C 221.600 87.417,222.011 87.648,222.331 87.786 C 222.650 87.924,223.091 88.179,223.311 88.352 C 223.531 88.525,223.833 88.666,223.981 88.664 C 224.280 88.661,223.967 88.460,222.539 87.736 C 222.056 87.491,221.620 87.226,221.570 87.146 C 221.521 87.066,221.391 87.002,221.282 87.005 C 221.173 87.008,221.233 87.129,221.417 87.273 M224.811 89.057 C 224.913 89.179,225.297 89.370,225.665 89.480 C 226.032 89.590,226.333 89.744,226.333 89.822 C 226.333 89.900,226.514 90.009,226.735 90.065 C 226.955 90.120,227.274 90.208,227.443 90.261 C 227.805 90.374,226.401 89.636,225.355 89.163 C 224.904 88.959,224.697 88.919,224.811 89.057 M228.000 90.583 C 228.114 90.721,228.282 90.833,228.374 90.833 C 228.467 90.833,228.449 90.723,228.333 90.583 C 228.219 90.446,228.051 90.333,227.959 90.333 C 227.866 90.333,227.884 90.444,228.000 90.583 M229.742 91.321 C 229.862 91.514,230.992 91.897,231.106 91.782 C 231.153 91.736,230.961 91.648,230.680 91.586 C 230.400 91.525,230.128 91.405,230.075 91.321 C 230.023 91.236,229.905 91.167,229.814 91.167 C 229.722 91.167,229.690 91.236,229.742 91.321 M231.551 92.075 C 231.684 92.208,232.008 92.366,232.272 92.425 C 232.675 92.517,232.646 92.479,232.090 92.184 C 231.308 91.769,231.229 91.753,231.551 92.075 M233.423 92.844 C 233.535 93.025,233.930 93.202,234.667 93.402 C 234.896 93.464,234.708 93.325,234.250 93.092 C 233.300 92.611,233.274 92.603,233.423 92.844 M235.167 93.664 C 235.167 93.845,236.320 94.235,236.456 94.100 C 236.511 94.045,236.449 94.000,236.319 93.999 C 236.190 93.998,235.877 93.890,235.625 93.759 C 235.373 93.627,235.167 93.585,235.167 93.664 M236.826 94.408 C 236.936 94.541,237.302 94.739,237.638 94.849 C 237.975 94.959,238.429 95.188,238.647 95.358 C 238.866 95.528,239.166 95.666,239.314 95.666 C 239.670 95.665,238.376 94.877,237.803 94.747 C 237.557 94.691,237.267 94.538,237.158 94.406 C 237.049 94.274,236.884 94.167,236.793 94.167 C 236.697 94.167,236.711 94.270,236.826 94.408 M270.049 95.160 C 270.151 95.432,270.261 95.628,270.292 95.597 C 270.396 95.493,270.133 94.667,269.996 94.667 C 269.923 94.667,269.946 94.889,270.049 95.160 M240.167 96.083 C 240.477 96.313,240.809 96.500,240.904 96.500 C 241.000 96.500,240.801 96.313,240.464 96.083 C 240.127 95.854,239.795 95.667,239.726 95.667 C 239.658 95.667,239.856 95.854,240.167 96.083 M241.451 96.781 C 242.117 97.329,243.349 98.040,243.453 97.936 C 243.510 97.879,243.473 97.833,243.373 97.833 C 243.273 97.833,243.091 97.737,242.970 97.619 C 242.849 97.502,242.375 97.197,241.917 96.942 C 241.458 96.687,241.249 96.615,241.451 96.781 M270.512 96.833 C 270.512 96.971,270.619 97.271,270.750 97.500 C 270.888 97.741,270.988 97.811,270.988 97.667 C 270.988 97.529,270.881 97.229,270.750 97.000 C 270.612 96.759,270.512 96.689,270.512 96.833 M243.667 98.143 C 243.667 98.254,243.910 98.491,244.208 98.670 C 244.806 99.029,247.344 101.555,247.638 102.083 C 247.747 102.280,247.825 102.323,247.828 102.188 C 247.834 101.916,246.127 100.060,245.029 99.144 C 244.600 98.788,244.119 98.371,243.958 98.219 C 243.772 98.042,243.667 98.014,243.667 98.143 M271.209 99.750 C 271.211 100.117,271.245 100.247,271.285 100.040 C 271.324 99.832,271.323 99.532,271.281 99.373 C 271.239 99.214,271.207 99.383,271.209 99.750 M271.465 102.000 C 271.616 103.812,271.615 105.508,271.461 107.500 C 271.366 108.714,271.381 108.986,271.522 108.667 C 271.768 108.113,271.772 101.759,271.527 101.083 C 271.386 100.693,271.372 100.894,271.465 102.000 M247.836 102.683 C 247.834 102.829,247.994 103.091,248.191 103.266 C 248.544 103.579,248.546 103.579,248.363 103.250 C 247.957 102.520,247.839 102.392,247.836 102.683 M248.680 104.592 C 248.673 104.780,248.748 105.015,248.847 105.114 C 249.033 105.300,248.977 107.293,248.760 108.250 C 248.658 108.698,248.668 108.715,248.855 108.417 C 249.188 107.885,249.250 105.524,248.948 104.833 C 248.761 104.404,248.690 104.340,248.680 104.592 M207.458 106.792 C 207.288 106.830,207.169 107.009,207.172 107.221 C 207.176 107.547,207.194 107.554,207.347 107.292 C 207.608 106.844,207.889 106.933,208.944 107.798 C 210.546 109.113,212.186 110.174,214.441 111.358 C 215.252 111.784,216.142 112.253,216.417 112.399 C 216.692 112.545,217.029 112.659,217.167 112.652 C 217.304 112.646,217.192 112.561,216.917 112.465 C 216.642 112.369,216.304 112.202,216.167 112.095 C 216.029 111.988,215.279 111.582,214.500 111.193 C 213.721 110.804,212.888 110.357,212.650 110.201 C 212.411 110.045,211.999 109.773,211.733 109.598 C 211.467 109.423,210.950 109.090,210.583 108.857 C 210.217 108.624,209.504 108.088,209.000 107.664 C 207.908 106.748,207.834 106.706,207.458 106.792 M248.416 109.338 C 248.151 110.541,246.282 112.613,244.583 113.584 C 244.033 113.899,243.652 114.159,243.735 114.162 C 245.086 114.206,249.335 109.612,248.611 108.889 C 248.568 108.845,248.479 109.047,248.416 109.338 M271.209 109.917 C 271.211 110.283,271.245 110.414,271.285 110.206 C 271.324 109.999,271.323 109.699,271.281 109.540 C 271.239 109.380,271.207 109.550,271.209 109.917 M270.999 111.292 C 270.998 111.635,270.886 112.131,270.749 112.394 C 270.420 113.024,270.430 113.341,270.762 112.866 C 271.024 112.493,271.310 110.667,271.107 110.667 C 271.048 110.667,271.000 110.948,270.999 111.292 M217.917 113.000 C 218.192 113.182,218.567 113.323,218.750 113.313 L 219.083 113.295 218.750 113.211 C 218.567 113.164,218.269 113.023,218.088 112.897 C 217.907 112.770,217.682 112.667,217.588 112.668 C 217.494 112.668,217.642 112.818,217.917 113.000 M219.667 113.667 C 220.435 114.088,220.719 114.088,220.083 113.667 C 219.808 113.485,219.471 113.338,219.333 113.341 C 219.196 113.345,219.346 113.491,219.667 113.667 M222.142 114.503 C 222.541 114.684,223.329 114.908,223.892 115.000 C 224.456 115.093,225.217 115.277,225.583 115.410 C 225.950 115.543,226.475 115.647,226.750 115.641 C 227.164 115.632,227.129 115.606,226.549 115.492 C 226.164 115.416,225.714 115.282,225.549 115.195 C 225.385 115.107,224.697 114.951,224.022 114.847 C 223.346 114.743,222.635 114.547,222.443 114.412 C 222.250 114.277,221.940 114.168,221.755 114.170 C 221.542 114.173,221.685 114.296,222.142 114.503 M242.583 114.511 C 241.919 114.937,242.338 114.927,243.038 114.501 C 243.338 114.318,243.471 114.173,243.333 114.179 C 243.196 114.186,242.858 114.335,242.583 114.511 M270.186 114.425 C 270.175 114.613,270.078 114.855,269.969 114.964 C 269.861 115.072,269.817 115.206,269.873 115.261 C 270.029 115.418,270.363 114.683,270.280 114.366 C 270.221 114.144,270.201 114.157,270.186 114.425 M240.583 115.096 C 240.217 115.233,239.617 115.409,239.250 115.487 C 238.715 115.602,238.674 115.634,239.041 115.648 C 239.293 115.658,239.930 115.522,240.458 115.345 C 240.985 115.167,241.567 114.989,241.750 114.947 C 242.016 114.887,241.999 114.870,241.667 114.860 C 241.438 114.853,240.950 114.960,240.583 115.096 M229.000 115.869 C 230.204 116.089,236.018 116.083,237.083 115.862 C 237.744 115.725,237.484 115.711,235.833 115.798 C 233.250 115.934,233.258 115.934,230.417 115.806 C 228.610 115.726,228.290 115.740,229.000 115.869 M269.114 116.861 C 268.979 117.075,268.823 117.438,268.769 117.667 L 268.670 118.083 268.877 117.649 C 268.990 117.411,269.188 117.090,269.315 116.937 C 269.443 116.784,269.505 116.616,269.454 116.565 C 269.402 116.513,269.249 116.646,269.114 116.861 M268.174 118.708 C 267.998 119.006,267.784 119.330,267.699 119.427 C 267.614 119.525,267.449 119.787,267.331 120.010 C 266.714 121.183,263.263 124.728,261.792 125.700 C 261.356 125.987,261.000 126.285,261.000 126.361 C 261.000 126.438,260.923 126.500,260.829 126.500 C 260.735 126.500,260.277 126.763,259.811 127.083 C 259.344 127.404,259.035 127.667,259.123 127.667 C 259.211 127.667,259.580 127.460,259.942 127.208 C 260.304 126.956,260.717 126.675,260.859 126.583 C 262.239 125.692,262.836 125.186,264.499 123.505 C 266.641 121.339,266.696 121.274,267.520 119.996 C 268.488 118.495,268.679 118.167,268.585 118.167 C 268.535 118.167,268.351 118.410,268.174 118.708 M207.193 126.716 C 207.164 127.585,207.676 128.340,208.284 128.327 C 208.467 128.323,208.375 128.230,208.047 128.087 C 207.505 127.852,207.396 127.625,207.280 126.500 C 207.232 126.031,207.215 126.073,207.193 126.716 M258.250 128.011 C 257.689 128.370,257.766 128.433,258.409 128.140 C 258.642 128.034,258.833 127.884,258.833 127.807 C 258.833 127.632,258.851 127.626,258.250 128.011 M208.811 128.556 C 209.024 128.814,210.319 129.236,210.461 129.095 C 210.513 129.043,210.446 129.000,210.313 129.000 C 210.180 129.000,209.776 128.850,209.417 128.667 C 208.646 128.274,208.564 128.259,208.811 128.556 M257.167 128.583 C 257.051 128.723,257.033 128.833,257.126 128.833 C 257.218 128.833,257.386 128.721,257.500 128.583 C 257.616 128.444,257.634 128.333,257.541 128.333 C 257.449 128.333,257.281 128.446,257.167 128.583 M210.742 129.321 C 210.878 129.540,211.962 129.877,212.210 129.777 C 212.324 129.731,212.267 129.687,212.083 129.679 C 211.900 129.671,211.535 129.553,211.273 129.416 C 210.719 129.127,210.610 129.107,210.742 129.321 M255.260 129.422 C 255.082 129.557,254.782 129.675,254.593 129.686 C 254.329 129.701,254.314 129.722,254.530 129.779 C 254.792 129.848,255.833 129.422,255.833 129.246 C 255.833 129.099,255.586 129.176,255.260 129.422 M213.095 130.174 C 213.468 130.346,214.106 130.527,214.512 130.576 L 215.250 130.666 214.417 130.447 C 213.958 130.327,213.420 130.140,213.219 130.031 C 213.019 129.922,212.757 129.840,212.636 129.847 C 212.515 129.855,212.722 130.002,213.095 130.174 M253.412 130.060 C 253.231 130.184,252.783 130.370,252.417 130.472 L 251.750 130.658 252.417 130.566 C 253.016 130.483,254.328 129.843,253.912 129.836 C 253.818 129.835,253.593 129.935,253.412 130.060 M215.703 130.910 C 215.952 131.054,216.514 131.208,216.953 131.253 L 217.750 131.334 216.917 131.098 C 215.206 130.614,215.187 130.611,215.703 130.910 M251.116 130.773 C 251.057 130.832,250.464 131.014,249.796 131.177 C 249.129 131.341,248.733 131.480,248.917 131.485 C 249.394 131.499,251.023 131.098,251.417 130.870 C 251.673 130.721,251.689 130.676,251.486 130.672 C 251.341 130.669,251.174 130.715,251.116 130.773 M219.178 131.648 C 219.515 131.864,221.386 132.169,222.250 132.148 C 222.663 132.138,222.347 132.051,221.417 131.920 C 220.592 131.804,219.692 131.658,219.417 131.594 C 219.049 131.509,218.986 131.524,219.178 131.648 M247.606 131.616 C 247.542 131.680,246.949 131.822,246.287 131.931 C 245.510 132.060,245.290 132.136,245.667 132.146 C 246.275 132.162,248.106 131.783,248.285 131.603 C 248.342 131.547,248.239 131.500,248.056 131.500 C 247.872 131.500,247.670 131.552,247.606 131.616 M224.167 132.359 C 225.561 132.738,226.166 132.818,227.500 132.798 L 228.917 132.777 227.250 132.657 C 226.333 132.591,225.283 132.456,224.917 132.356 C 224.550 132.256,224.100 132.181,223.917 132.188 C 223.731 132.195,223.841 132.271,224.167 132.359 M242.833 132.358 C 242.512 132.445,241.612 132.576,240.833 132.650 L 239.417 132.784 240.500 132.799 C 241.520 132.813,242.169 132.725,243.750 132.359 C 244.334 132.224,244.355 132.205,243.917 132.203 C 243.642 132.202,243.154 132.272,242.833 132.358 M231.719 132.958 C 233.168 132.986,235.493 132.986,236.885 132.958 C 238.278 132.930,237.092 132.907,234.250 132.907 C 231.408 132.908,230.269 132.930,231.719 132.958 " stroke="none" fill="#989898" fill-rule="evenodd"></path><path id="path3" d="M240.083 35.001 C 238.078 35.349,238.240 35.493,240.500 35.371 C 243.315 35.220,245.353 35.219,248.750 35.369 C 251.388 35.485,251.405 35.484,250.333 35.230 C 249.074 34.932,241.463 34.762,240.083 35.001 M233.448 35.669 C 233.190 35.747,232.890 35.882,232.781 35.971 C 232.672 36.059,232.433 36.168,232.250 36.213 C 231.981 36.279,231.999 36.298,232.345 36.314 C 232.581 36.325,233.114 36.217,233.530 36.076 C 233.945 35.934,235.027 35.757,235.934 35.682 L 237.583 35.547 235.750 35.538 C 234.742 35.533,233.706 35.592,233.448 35.669 M253.585 35.663 C 254.594 35.736,255.826 35.917,256.323 36.065 C 256.820 36.213,257.457 36.323,257.739 36.311 C 258.177 36.291,258.193 36.277,257.846 36.212 C 257.623 36.170,257.252 36.012,257.022 35.861 C 256.687 35.641,256.115 35.581,254.176 35.558 L 251.750 35.529 253.585 35.663 M52.109 36.638 C 51.753 37.032,51.680 54.113,52.033 54.467 C 52.186 54.620,55.319 54.657,65.325 54.626 L 78.417 54.585 65.433 54.542 C 56.179 54.511,52.384 54.444,52.224 54.312 C 51.948 54.083,51.890 37.812,52.163 37.094 L 52.325 36.667 89.686 36.667 C 125.072 36.667,127.058 36.682,127.268 36.958 C 127.460 37.211,127.645 54.197,127.458 54.372 C 127.435 54.394,121.492 54.451,114.250 54.499 L 101.083 54.587 114.175 54.627 C 124.180 54.657,127.314 54.620,127.467 54.467 C 127.806 54.128,127.749 37.191,127.407 36.704 L 127.148 36.333 89.766 36.333 C 53.764 36.333,52.375 36.345,52.109 36.638 M139.812 36.608 C 139.506 36.978,139.380 130.905,139.686 131.274 C 139.994 131.645,196.590 131.608,196.732 131.236 C 197.057 130.389,196.831 114.209,196.488 113.772 L 196.142 113.333 178.988 113.333 L 161.833 113.333 161.833 103.084 L 161.833 92.835 176.708 92.792 L 191.583 92.748 176.637 92.707 L 161.691 92.667 161.586 93.542 C 161.435 94.801,161.557 113.376,161.718 113.625 C 161.825 113.789,165.483 113.833,179.087 113.833 C 195.956 113.833,196.325 113.840,196.494 114.156 C 196.756 114.645,196.730 130.870,196.467 131.133 C 196.176 131.424,140.158 131.424,139.867 131.133 C 139.566 130.833,139.582 37.761,139.882 37.167 L 140.093 36.750 166.951 36.708 L 193.808 36.666 194.154 37.105 C 194.678 37.771,194.700 54.048,194.178 54.327 C 193.962 54.443,188.570 54.501,177.886 54.503 C 169.103 54.504,161.821 54.566,161.703 54.641 C 161.359 54.859,161.486 74.784,161.833 75.004 C 161.986 75.100,167.867 75.163,176.925 75.164 C 188.243 75.166,191.814 75.214,191.967 75.367 C 192.320 75.720,192.247 91.968,191.891 92.362 C 191.557 92.730,191.899 92.792,192.262 92.429 C 192.713 91.978,192.606 75.647,192.149 75.234 C 191.811 74.928,191.253 74.914,176.858 74.833 L 161.917 74.750 161.874 64.708 L 161.831 54.667 178.063 54.667 L 194.295 54.667 194.564 54.256 C 195.047 53.519,194.938 37.991,194.443 37.083 L 194.080 36.417 167.061 36.374 C 142.080 36.336,140.024 36.353,139.812 36.608 M229.542 36.537 C 229.335 36.636,229.167 36.781,229.167 36.859 C 229.167 37.050,229.728 37.038,229.925 36.843 C 230.012 36.757,230.458 36.616,230.917 36.529 L 231.750 36.371 230.833 36.363 C 230.329 36.359,229.748 36.437,229.542 36.537 M259.417 36.602 C 259.967 36.734,260.604 36.883,260.833 36.933 L 261.250 37.022 260.857 36.678 C 260.545 36.405,260.249 36.336,259.440 36.347 L 258.417 36.361 259.417 36.602 M278.109 36.638 C 277.753 37.032,277.680 54.113,278.033 54.467 C 278.186 54.620,281.319 54.657,291.325 54.626 L 304.417 54.585 291.433 54.542 C 282.179 54.511,278.384 54.444,278.224 54.312 C 277.921 54.060,277.892 37.754,278.193 37.091 L 278.387 36.667 315.771 36.667 C 352.561 36.667,353.158 36.672,353.327 36.989 C 353.475 37.264,353.602 54.237,353.458 54.372 C 353.435 54.394,347.492 54.451,340.250 54.499 L 327.083 54.587 340.111 54.627 C 347.277 54.649,353.258 54.621,353.403 54.566 C 353.840 54.398,353.800 37.006,353.362 36.609 C 352.864 36.158,278.518 36.187,278.109 36.638 M227.136 37.164 C 226.891 37.238,226.518 37.419,226.308 37.566 C 226.098 37.713,225.690 37.833,225.402 37.833 C 225.114 37.833,224.699 37.972,224.481 38.143 C 224.262 38.313,223.783 38.506,223.417 38.573 C 223.050 38.639,222.600 38.829,222.417 38.996 C 222.233 39.162,221.847 39.347,221.559 39.408 C 221.271 39.469,220.903 39.665,220.741 39.843 C 220.580 40.021,220.322 40.167,220.167 40.167 C 220.012 40.167,219.755 40.310,219.597 40.485 C 219.438 40.660,219.111 40.853,218.870 40.913 C 218.629 40.974,218.330 41.168,218.206 41.345 C 218.082 41.522,217.897 41.667,217.794 41.667 C 217.565 41.667,215.833 42.845,215.833 43.001 C 215.833 43.063,215.646 43.199,215.417 43.303 C 215.188 43.407,215.000 43.607,215.000 43.746 C 215.000 43.886,214.925 44.000,214.833 44.000 C 214.742 44.000,214.367 44.300,214.000 44.667 C 213.633 45.033,213.333 45.408,213.333 45.500 C 213.333 45.592,213.223 45.667,213.089 45.667 C 212.955 45.667,212.771 45.805,212.681 45.974 C 212.590 46.143,212.175 46.642,211.758 47.084 C 211.341 47.525,211.000 48.006,211.000 48.153 C 211.000 48.300,210.850 48.513,210.667 48.628 C 210.483 48.742,210.333 48.937,210.333 49.060 C 210.333 49.184,210.146 49.487,209.917 49.734 C 209.688 49.982,209.500 50.364,209.500 50.584 C 209.500 50.804,209.398 51.043,209.274 51.117 C 208.978 51.292,208.667 51.896,208.667 52.297 C 208.667 52.472,208.521 52.747,208.343 52.908 C 208.139 53.093,207.978 53.531,207.907 54.100 C 207.846 54.595,207.741 55.000,207.674 55.000 C 207.410 55.000,207.168 55.899,207.189 56.800 L 207.211 57.750 207.329 57.000 C 207.480 56.043,208.085 54.165,208.600 53.052 C 208.820 52.577,209.000 52.117,209.000 52.031 C 209.000 51.945,209.105 51.787,209.234 51.680 C 209.362 51.574,209.518 51.283,209.580 51.035 C 209.729 50.439,211.321 47.997,212.277 46.899 C 214.790 44.012,217.545 41.789,220.417 40.329 C 220.783 40.142,221.196 39.919,221.333 39.832 C 221.839 39.512,223.790 38.667,224.021 38.667 C 224.152 38.667,224.409 38.562,224.593 38.433 C 224.776 38.304,225.262 38.114,225.672 38.010 C 226.081 37.906,226.679 37.709,227.000 37.573 C 227.321 37.437,227.921 37.261,228.333 37.181 L 229.083 37.037 228.333 37.033 C 227.921 37.030,227.382 37.089,227.136 37.164 M262.239 37.186 C 262.783 37.280,263.381 37.465,263.568 37.595 C 264.124 37.985,264.474 37.900,264.053 37.479 C 263.769 37.195,263.454 37.113,262.474 37.070 L 261.250 37.015 262.239 37.186 M265.000 37.987 C 265.321 38.050,266.003 38.300,266.515 38.543 L 267.446 38.984 267.557 42.769 C 267.729 48.699,267.692 57.807,267.494 58.178 C 267.275 58.588,266.661 58.591,266.144 58.185 C 265.597 57.755,264.702 57.228,264.000 56.923 C 263.679 56.784,263.304 56.592,263.167 56.497 C 263.029 56.402,262.775 56.277,262.602 56.220 C 262.429 56.162,261.956 55.940,261.551 55.725 C 261.147 55.509,260.723 55.333,260.610 55.333 C 260.496 55.333,260.116 55.187,259.765 55.008 C 259.413 54.828,258.707 54.595,258.195 54.489 C 257.682 54.382,257.110 54.195,256.923 54.073 C 256.736 53.951,256.059 53.768,255.419 53.666 C 254.779 53.564,253.916 53.376,253.502 53.247 C 253.089 53.118,251.955 52.937,250.984 52.845 C 250.012 52.753,249.013 52.600,248.764 52.505 C 248.159 52.275,242.325 52.281,241.719 52.512 C 241.461 52.611,240.575 52.767,239.750 52.859 C 238.925 52.951,238.025 53.129,237.750 53.256 C 237.475 53.382,236.875 53.574,236.417 53.683 C 235.958 53.791,235.469 53.978,235.330 54.098 C 235.191 54.218,234.891 54.390,234.663 54.481 L 234.250 54.646 234.708 54.656 C 234.960 54.662,235.318 54.515,235.504 54.330 C 235.700 54.133,236.169 53.950,236.629 53.891 C 237.062 53.836,237.679 53.655,238.000 53.490 C 239.040 52.956,245.932 52.505,248.083 52.831 C 248.633 52.914,249.908 53.035,250.917 53.099 C 252.081 53.173,252.889 53.307,253.130 53.464 C 253.339 53.600,254.051 53.751,254.710 53.798 C 255.519 53.856,256.151 54.011,256.647 54.275 C 257.052 54.490,257.641 54.667,257.957 54.667 C 258.273 54.667,258.714 54.810,258.937 54.986 C 259.160 55.162,259.660 55.358,260.047 55.422 C 260.433 55.486,260.884 55.679,261.048 55.852 C 261.212 56.025,261.557 56.167,261.814 56.167 C 262.071 56.167,262.414 56.312,262.575 56.491 C 262.736 56.669,263.104 56.864,263.392 56.925 C 263.681 56.986,264.067 57.169,264.250 57.332 C 264.433 57.495,264.759 57.682,264.975 57.747 C 265.190 57.813,265.499 57.999,265.661 58.161 C 266.044 58.544,267.418 59.067,267.729 58.948 C 268.155 58.784,268.221 56.864,268.107 47.833 L 267.997 39.083 267.623 38.795 C 267.418 38.637,267.149 38.506,267.026 38.504 C 266.903 38.502,266.612 38.350,266.379 38.167 C 266.082 37.933,265.724 37.839,265.186 37.852 C 264.435 37.871,264.430 37.874,265.000 37.987 M78.500 92.808 C 78.500 129.546,78.511 130.958,78.805 131.224 C 79.299 131.672,100.318 131.644,100.724 131.195 C 101.127 130.750,101.153 54.667,100.750 54.667 C 100.529 54.667,100.500 59.015,100.500 92.800 C 100.500 122.237,100.454 130.979,100.300 131.133 C 100.088 131.345,79.807 131.441,79.264 131.232 C 79.024 131.140,79.000 127.608,79.000 92.899 C 79.000 59.026,78.971 54.667,78.750 54.667 C 78.529 54.667,78.500 59.016,78.500 92.808 M233.417 55.089 C 233.142 55.315,232.739 55.631,232.521 55.792 C 231.615 56.459,230.061 58.285,230.246 58.465 C 230.313 58.530,230.491 58.406,230.642 58.190 C 231.108 57.522,233.184 55.510,233.633 55.291 C 234.045 55.090,234.338 54.661,234.056 54.672 C 233.979 54.675,233.692 54.862,233.417 55.089 M304.500 92.808 C 304.500 129.546,304.511 130.958,304.805 131.224 C 305.299 131.672,326.318 131.644,326.724 131.195 C 327.127 130.750,327.153 54.667,326.750 54.667 C 326.529 54.667,326.500 59.015,326.500 92.800 C 326.500 122.237,326.454 130.979,326.300 131.133 C 325.905 131.528,305.219 131.410,305.006 131.011 C 304.888 130.791,304.833 118.561,304.833 92.678 C 304.833 67.448,304.777 54.667,304.667 54.667 C 304.556 54.667,304.500 67.491,304.500 92.808 M206.747 58.583 C 206.250 59.586,206.245 67.067,206.741 68.070 C 207.175 68.946,207.251 68.588,206.930 67.176 C 206.564 65.565,206.561 60.582,206.927 59.352 C 207.279 58.164,207.176 57.720,206.747 58.583 M229.756 59.710 C 228.825 62.665,230.152 66.010,233.232 68.470 C 233.884 68.991,234.511 69.506,234.626 69.614 C 234.741 69.723,234.985 69.859,235.168 69.917 C 235.350 69.975,235.500 70.091,235.500 70.176 C 235.500 70.260,235.744 70.446,236.042 70.589 C 236.340 70.731,236.958 71.063,237.417 71.326 C 238.552 71.978,240.501 72.942,240.958 73.078 C 241.165 73.139,241.333 73.259,241.333 73.345 C 241.333 73.430,241.408 73.500,241.500 73.500 C 241.979 73.500,241.581 72.988,240.958 72.804 C 240.569 72.688,240.105 72.460,239.927 72.297 C 239.749 72.134,239.434 72.000,239.226 72.000 C 239.018 72.000,238.661 71.813,238.432 71.583 C 238.203 71.354,237.842 71.167,237.631 71.167 C 237.420 71.167,237.153 71.017,237.039 70.833 C 236.924 70.650,236.730 70.500,236.608 70.500 C 236.485 70.500,236.167 70.313,235.901 70.084 C 235.635 69.854,235.285 69.667,235.125 69.667 C 234.965 69.667,234.833 69.604,234.833 69.527 C 234.833 69.451,234.460 69.094,234.004 68.736 C 232.762 67.759,231.960 67.019,231.673 66.587 C 231.532 66.374,231.145 65.799,230.813 65.308 C 230.417 64.724,230.174 64.139,230.106 63.611 C 230.049 63.168,229.881 62.550,229.732 62.236 C 229.482 61.708,229.483 61.623,229.744 61.072 C 229.996 60.540,230.312 58.665,230.148 58.668 C 230.113 58.669,229.936 59.138,229.756 59.710 M207.224 70.032 C 207.251 70.764,207.355 71.251,207.529 71.449 C 207.674 71.615,207.845 72.112,207.908 72.554 C 207.972 72.996,208.169 73.502,208.345 73.679 C 208.522 73.855,208.667 74.182,208.667 74.404 C 208.667 74.626,208.854 75.031,209.083 75.303 C 209.313 75.575,209.500 75.952,209.500 76.140 C 209.500 76.329,209.688 76.685,209.917 76.932 C 210.146 77.180,210.333 77.481,210.333 77.602 C 210.333 77.723,210.475 77.897,210.647 77.990 C 210.820 78.082,211.005 78.331,211.058 78.543 C 211.111 78.755,211.495 79.283,211.911 79.717 C 212.327 80.151,212.667 80.574,212.667 80.658 C 212.667 80.742,212.817 80.858,213.000 80.917 C 213.183 80.975,213.333 81.078,213.333 81.145 C 213.333 81.303,214.426 82.500,214.571 82.500 C 214.631 82.500,215.049 82.875,215.500 83.333 C 215.951 83.792,216.398 84.167,216.493 84.167 C 216.589 84.167,216.667 84.270,216.667 84.396 C 216.667 84.523,216.910 84.725,217.208 84.846 C 217.506 84.967,217.848 85.202,217.968 85.367 C 218.088 85.532,218.264 85.667,218.360 85.667 C 218.457 85.667,218.758 85.854,219.030 86.083 C 219.303 86.313,219.621 86.500,219.737 86.500 C 219.853 86.500,220.084 86.650,220.250 86.833 C 220.416 87.017,220.642 87.167,220.751 87.167 C 220.861 87.167,221.154 87.354,221.401 87.583 C 221.648 87.813,222.007 88.000,222.198 88.000 C 222.389 88.000,222.719 88.188,222.931 88.417 C 223.166 88.670,223.500 88.833,223.785 88.833 C 224.069 88.833,224.333 88.961,224.456 89.158 C 224.568 89.337,224.918 89.532,225.235 89.592 C 225.552 89.651,225.941 89.842,226.098 90.017 C 226.256 90.191,226.595 90.333,226.851 90.333 C 227.107 90.333,227.377 90.435,227.450 90.559 C 227.630 90.864,228.234 91.167,228.663 91.167 C 228.856 91.167,229.165 91.308,229.351 91.480 C 229.536 91.653,229.984 91.841,230.346 91.899 C 230.708 91.957,231.154 92.154,231.336 92.336 C 231.524 92.524,231.890 92.667,232.184 92.667 C 232.493 92.667,232.901 92.835,233.197 93.083 C 233.469 93.313,233.843 93.500,234.028 93.500 C 234.213 93.500,234.555 93.650,234.788 93.833 C 235.021 94.017,235.374 94.167,235.573 94.167 C 235.772 94.167,236.189 94.354,236.500 94.583 C 236.811 94.813,237.235 95.000,237.443 95.000 C 237.650 95.000,237.955 95.141,238.119 95.314 C 238.282 95.487,238.679 95.684,239.000 95.753 C 239.321 95.822,239.681 96.018,239.801 96.189 C 239.921 96.360,240.113 96.500,240.227 96.500 C 240.342 96.500,240.689 96.688,241.000 96.917 C 241.311 97.146,241.659 97.333,241.775 97.333 C 241.890 97.333,242.172 97.521,242.402 97.750 C 242.631 97.979,242.967 98.167,243.148 98.167 C 243.331 98.167,243.525 98.315,243.583 98.500 C 243.642 98.683,243.804 98.833,243.944 98.833 C 244.085 98.833,244.518 99.171,244.908 99.583 C 245.298 99.996,245.703 100.333,245.808 100.333 C 245.914 100.333,246.000 100.429,246.000 100.547 C 246.000 100.665,246.337 101.058,246.749 101.422 C 247.228 101.845,247.498 102.222,247.499 102.469 C 247.500 102.992,247.791 103.500,248.089 103.500 C 248.256 103.500,248.333 103.681,248.333 104.075 C 248.333 104.391,248.418 105.043,248.521 105.524 C 248.663 106.187,248.659 106.661,248.503 107.490 C 248.228 108.953,248.340 109.759,248.655 108.583 C 248.942 107.511,249.073 105.375,248.869 105.117 C 248.781 105.007,248.657 104.617,248.592 104.250 C 248.526 103.883,248.339 103.433,248.175 103.250 C 248.011 103.067,247.824 102.695,247.760 102.423 C 247.611 101.795,244.173 98.394,243.160 97.872 C 242.934 97.756,242.412 97.439,242.000 97.167 C 241.588 96.896,241.072 96.595,240.855 96.500 C 240.638 96.405,240.272 96.178,240.041 95.997 C 239.811 95.815,239.492 95.667,239.333 95.667 C 239.175 95.667,238.866 95.529,238.647 95.360 C 238.429 95.191,237.992 94.965,237.677 94.858 C 237.363 94.750,236.988 94.564,236.844 94.443 C 236.701 94.323,236.265 94.133,235.875 94.022 C 235.485 93.911,235.167 93.758,235.167 93.682 C 235.167 93.606,234.831 93.449,234.420 93.334 C 234.009 93.219,233.593 93.029,233.495 92.911 C 233.397 92.793,232.946 92.607,232.492 92.498 C 232.038 92.389,231.667 92.235,231.667 92.156 C 231.667 92.077,231.348 91.929,230.958 91.826 C 230.569 91.724,230.100 91.545,229.917 91.428 C 229.733 91.312,229.283 91.121,228.917 91.004 C 228.550 90.887,228.137 90.696,228.000 90.579 C 227.862 90.462,227.431 90.272,227.042 90.157 C 226.652 90.042,226.333 89.890,226.333 89.820 C 226.333 89.750,226.052 89.601,225.708 89.489 C 225.365 89.377,224.904 89.146,224.686 88.976 C 224.467 88.806,224.159 88.667,224.000 88.667 C 223.841 88.667,223.533 88.530,223.314 88.364 C 223.096 88.197,222.617 87.908,222.250 87.722 C 220.811 86.990,220.500 86.804,220.500 86.674 C 220.500 86.600,220.366 86.504,220.202 86.461 C 218.423 85.996,212.553 80.509,210.702 77.583 C 210.413 77.125,210.094 76.655,209.994 76.538 C 209.895 76.422,209.732 76.084,209.633 75.788 C 209.534 75.492,209.360 75.137,209.247 75.000 C 209.135 74.862,208.956 74.481,208.851 74.153 C 208.745 73.825,208.511 73.265,208.330 72.909 C 208.148 72.554,208.000 72.110,207.999 71.923 C 207.998 71.736,207.883 71.364,207.743 71.095 C 207.603 70.826,207.420 70.226,207.336 69.762 L 207.183 68.917 207.224 70.032 M242.250 73.702 C 242.525 73.798,242.862 73.974,243.000 74.092 C 243.137 74.210,243.475 74.363,243.750 74.431 C 244.025 74.500,244.580 74.731,244.983 74.944 C 245.386 75.158,245.846 75.333,246.004 75.333 C 246.163 75.333,246.380 75.438,246.486 75.567 C 246.593 75.695,246.884 75.851,247.132 75.912 C 247.380 75.973,248.258 76.350,249.083 76.750 C 249.908 77.150,250.771 77.529,251.000 77.592 C 251.229 77.655,251.529 77.797,251.667 77.909 C 251.804 78.020,252.179 78.211,252.500 78.333 C 252.821 78.455,253.202 78.655,253.346 78.777 C 253.491 78.900,253.687 79.000,253.782 79.000 C 253.876 79.000,254.228 79.187,254.564 79.415 C 254.900 79.643,255.355 79.874,255.575 79.930 C 255.795 79.985,256.105 80.173,256.264 80.348 C 256.422 80.523,256.627 80.667,256.720 80.667 C 256.869 80.667,258.316 81.531,258.750 81.878 C 258.842 81.952,259.395 82.328,259.979 82.714 C 260.563 83.101,261.200 83.530,261.395 83.669 C 262.737 84.622,266.233 88.137,267.086 89.392 C 268.264 91.121,268.656 91.742,268.842 92.166 C 268.941 92.395,269.123 92.695,269.245 92.833 C 269.367 92.971,269.565 93.421,269.684 93.833 C 269.803 94.246,269.953 94.621,270.018 94.667 C 270.083 94.713,270.211 95.013,270.303 95.334 L 270.470 95.917 270.485 95.314 C 270.494 94.961,270.372 94.547,270.191 94.314 C 270.021 94.096,269.832 93.646,269.771 93.315 C 269.710 92.983,269.512 92.578,269.330 92.414 C 269.149 92.249,269.000 91.986,269.000 91.828 C 269.000 91.670,268.883 91.444,268.740 91.325 C 268.598 91.207,268.376 90.860,268.249 90.555 C 268.121 90.250,267.939 90.000,267.844 90.000 C 267.749 90.000,267.561 89.737,267.427 89.417 C 267.293 89.096,267.110 88.833,267.020 88.833 C 266.930 88.833,266.807 88.680,266.747 88.492 C 266.575 87.950,262.613 84.117,261.688 83.598 C 261.539 83.514,261.379 83.390,261.333 83.322 C 261.170 83.079,259.504 82.000,259.294 82.000 C 259.176 82.000,258.987 81.850,258.872 81.667 C 258.758 81.483,258.582 81.333,258.481 81.333 C 258.380 81.333,258.075 81.146,257.803 80.917 C 257.531 80.688,257.193 80.500,257.053 80.500 C 256.913 80.500,256.575 80.313,256.303 80.083 C 256.031 79.854,255.661 79.667,255.482 79.667 C 255.303 79.667,255.114 79.558,255.063 79.425 C 255.012 79.292,254.696 79.093,254.360 78.984 C 254.025 78.874,253.571 78.646,253.353 78.476 C 253.134 78.306,252.827 78.167,252.670 78.167 C 252.513 78.167,252.256 78.024,252.098 77.850 C 251.941 77.676,251.535 77.482,251.197 77.420 C 250.860 77.357,250.433 77.172,250.250 77.009 C 250.067 76.845,249.675 76.666,249.380 76.611 C 249.085 76.556,248.691 76.358,248.505 76.172 C 248.319 75.986,247.979 75.833,247.750 75.833 C 247.521 75.833,247.194 75.694,247.023 75.523 C 246.852 75.352,246.425 75.158,246.073 75.092 C 245.722 75.027,245.252 74.829,245.028 74.653 C 244.805 74.477,244.418 74.333,244.169 74.333 C 243.916 74.333,243.516 74.149,243.266 73.917 C 242.970 73.643,242.634 73.505,242.283 73.513 L 241.750 73.526 242.250 73.702 M270.500 96.236 C 270.500 96.390,270.613 96.734,270.750 97.000 C 270.888 97.267,271.071 97.882,271.158 98.367 L 271.316 99.250 271.279 98.075 C 271.246 96.993,270.500 95.233,270.500 96.236 M271.396 100.000 C 271.435 100.412,271.559 101.587,271.670 102.610 C 271.863 104.376,271.790 106.307,271.411 109.500 L 271.322 110.250 271.646 109.583 C 272.310 108.214,272.272 101.315,271.592 99.833 L 271.325 99.250 271.396 100.000 M206.875 106.444 C 206.712 106.510,206.667 108.720,206.667 116.711 C 206.667 128.233,206.660 128.170,207.887 128.400 C 208.184 128.456,208.555 128.651,208.712 128.834 C 208.895 129.048,209.191 129.162,209.540 129.154 L 210.083 129.140 209.583 128.965 C 209.308 128.869,208.965 128.687,208.820 128.562 C 208.675 128.436,208.428 128.333,208.271 128.333 C 208.114 128.333,207.801 128.149,207.576 127.924 L 207.167 127.515 207.167 117.194 C 207.167 105.295,207.052 106.018,208.712 107.445 C 209.191 107.858,209.958 108.438,210.417 108.735 C 210.875 109.032,211.467 109.420,211.733 109.596 C 211.999 109.772,212.411 110.045,212.650 110.201 C 212.888 110.357,213.721 110.804,214.500 111.193 C 215.279 111.582,216.029 111.988,216.167 112.095 C 216.304 112.203,216.810 112.418,217.290 112.575 C 217.770 112.731,218.200 112.920,218.246 112.994 C 218.292 113.068,218.612 113.181,218.956 113.245 C 219.301 113.309,219.808 113.497,220.083 113.663 C 220.358 113.829,220.921 114.017,221.333 114.082 C 221.746 114.146,222.247 114.303,222.448 114.430 C 222.648 114.556,223.349 114.744,224.006 114.846 C 224.662 114.947,225.472 115.145,225.805 115.284 C 227.661 116.059,238.103 115.980,240.371 115.173 C 240.896 114.986,241.485 114.833,241.681 114.833 C 241.878 114.833,242.311 114.696,242.644 114.529 C 242.977 114.362,243.760 113.968,244.383 113.654 C 245.910 112.885,248.333 110.418,248.333 109.632 C 248.333 109.355,247.691 109.992,247.564 110.397 C 247.417 110.861,245.109 113.167,244.791 113.167 C 244.656 113.167,244.365 113.308,244.145 113.481 C 243.925 113.654,243.466 113.873,243.124 113.967 C 242.783 114.062,242.397 114.246,242.265 114.378 C 242.134 114.509,241.557 114.665,240.983 114.725 C 240.409 114.785,239.747 114.966,239.511 115.126 C 238.943 115.512,226.588 115.579,226.352 115.196 C 226.180 114.919,225.155 114.676,224.137 114.671 C 223.658 114.668,223.257 114.567,223.097 114.407 C 222.955 114.264,222.368 114.065,221.794 113.964 C 221.220 113.863,220.668 113.681,220.568 113.561 C 220.468 113.440,219.981 113.254,219.486 113.148 C 218.992 113.042,218.512 112.856,218.419 112.734 C 218.326 112.613,217.914 112.439,217.503 112.349 C 217.092 112.259,216.730 112.107,216.698 112.012 C 216.667 111.917,216.343 111.759,215.978 111.661 C 215.614 111.563,215.170 111.336,214.991 111.158 C 214.813 110.979,214.528 110.833,214.359 110.833 C 214.190 110.833,213.876 110.681,213.661 110.495 C 213.447 110.310,213.092 110.112,212.872 110.057 C 212.652 110.002,212.301 109.798,212.092 109.603 C 211.387 108.949,210.752 108.504,210.518 108.502 C 210.390 108.501,210.127 108.346,209.934 108.157 C 208.211 106.475,207.620 106.143,206.875 106.444 M271.142 111.448 C 271.082 112.015,270.913 112.651,270.767 112.860 C 270.620 113.069,270.506 113.393,270.513 113.579 C 270.523 113.821,270.553 113.846,270.621 113.667 C 270.673 113.529,270.814 113.358,270.934 113.287 C 271.219 113.119,271.368 112.293,271.302 111.250 L 271.250 110.417 271.142 111.448 M270.333 114.380 C 270.333 114.588,270.232 114.907,270.107 115.088 C 269.983 115.269,269.786 115.717,269.669 116.083 C 269.553 116.450,269.343 116.882,269.202 117.043 C 268.829 117.469,269.077 117.590,269.486 117.181 C 269.677 116.990,269.833 116.625,269.833 116.370 C 269.833 116.114,269.982 115.780,270.167 115.622 C 270.467 115.365,270.677 114.000,270.417 114.000 C 270.371 114.000,270.333 114.171,270.333 114.380 M268.521 118.376 C 268.074 119.175,267.062 120.743,266.674 121.237 C 266.533 121.418,265.554 122.438,264.499 123.505 C 262.836 125.186,262.239 125.692,260.859 126.583 C 260.717 126.675,260.304 126.956,259.942 127.208 C 259.580 127.460,259.182 127.667,259.058 127.667 C 258.935 127.667,258.833 127.733,258.833 127.813 C 258.833 127.894,258.590 128.056,258.292 128.174 C 257.994 128.292,257.637 128.479,257.500 128.590 C 257.362 128.701,256.952 128.887,256.587 129.004 C 256.223 129.121,255.698 129.356,255.421 129.525 C 255.143 129.694,254.738 129.832,254.520 129.833 C 254.301 129.833,253.889 129.977,253.603 130.153 C 253.317 130.328,252.783 130.526,252.417 130.591 C 252.050 130.657,251.600 130.790,251.417 130.886 C 251.233 130.983,250.708 131.154,250.250 131.267 L 249.417 131.472 250.269 131.486 C 250.891 131.496,251.239 131.408,251.555 131.160 C 251.797 130.969,252.368 130.774,252.853 130.717 C 253.330 130.660,253.846 130.487,254.001 130.332 C 254.156 130.177,254.604 129.999,254.997 129.936 C 255.390 129.874,255.899 129.675,256.128 129.494 C 256.357 129.314,256.717 129.167,256.926 129.167 C 257.136 129.167,257.531 128.979,257.803 128.750 C 258.075 128.521,258.404 128.333,258.534 128.333 C 258.664 128.333,258.931 128.183,259.128 128.000 C 259.325 127.817,259.596 127.667,259.731 127.667 C 259.866 127.667,260.123 127.479,260.304 127.250 C 260.484 127.021,260.754 126.833,260.905 126.833 C 261.055 126.833,261.368 126.665,261.599 126.458 C 261.830 126.252,262.206 125.915,262.434 125.708 C 262.662 125.502,262.895 125.333,262.953 125.333 C 263.010 125.333,263.374 125.003,263.761 124.598 C 264.149 124.194,264.623 123.779,264.816 123.676 C 265.009 123.573,265.167 123.387,265.167 123.264 C 265.167 123.140,265.317 123.000,265.500 122.952 C 265.683 122.904,265.833 122.754,265.833 122.618 C 265.833 122.483,266.021 122.249,266.250 122.099 C 266.479 121.949,266.667 121.715,266.667 121.579 C 266.667 121.444,266.741 121.333,266.831 121.333 C 266.992 121.333,267.664 120.411,268.167 119.501 C 268.304 119.252,268.548 118.920,268.708 118.762 C 268.939 118.536,269.139 117.662,268.958 117.668 C 268.935 117.669,268.739 117.987,268.521 118.376 M210.404 129.486 C 210.576 129.676,211.034 129.853,211.531 129.921 C 212.002 129.986,212.508 130.175,212.685 130.351 C 212.898 130.564,213.230 130.665,213.708 130.661 L 214.417 130.656 213.500 130.320 C 212.996 130.135,212.283 129.908,211.917 129.816 C 211.550 129.723,211.084 129.540,210.881 129.407 C 210.343 129.057,210.058 129.104,210.404 129.486 M214.792 130.784 C 214.998 130.824,215.167 130.914,215.167 130.985 C 215.167 131.263,216.067 131.499,217.050 131.480 L 218.083 131.459 217.129 131.320 C 216.605 131.243,215.952 131.064,215.679 130.923 C 215.406 130.782,215.011 130.677,214.800 130.689 L 214.417 130.712 214.792 130.784 M218.583 131.823 C 218.970 132.069,219.537 132.166,221.083 132.252 C 222.404 132.324,223.281 132.456,223.667 132.639 C 224.122 132.856,224.798 132.922,226.750 132.939 L 229.250 132.961 227.158 132.838 C 226.007 132.769,224.896 132.623,224.689 132.512 C 224.481 132.401,223.377 132.239,222.235 132.153 C 221.093 132.066,219.842 131.885,219.454 131.750 C 218.398 131.382,217.949 131.420,218.583 131.823 M247.750 131.779 C 247.383 131.911,246.270 132.091,245.277 132.178 C 244.283 132.266,243.328 132.414,243.153 132.507 C 242.978 132.601,242.029 132.739,241.043 132.815 L 239.250 132.953 241.135 132.977 C 242.915 132.999,244.500 132.776,244.500 132.504 C 244.500 132.436,245.344 132.328,246.375 132.263 C 247.790 132.174,248.373 132.066,248.750 131.825 C 249.391 131.416,248.830 131.390,247.750 131.779 M233.134 133.124 C 234.078 133.154,235.578 133.154,236.467 133.124 C 237.356 133.094,236.583 133.070,234.750 133.070 C 232.917 133.070,232.189 133.095,233.134 133.124 " stroke="none" fill="#c4c4c4" fill-rule="evenodd"></path><path id="path4" d="M237.750 35.688 C 236.558 35.765,235.096 35.939,234.500 36.075 C 233.904 36.210,232.854 36.401,232.167 36.498 C 231.479 36.596,230.569 36.789,230.144 36.928 C 229.719 37.067,229.007 37.248,228.561 37.331 C 227.080 37.606,222.676 39.213,221.667 39.847 C 221.529 39.934,221.117 40.152,220.750 40.334 C 219.887 40.760,219.210 41.158,218.557 41.625 C 218.268 41.831,217.983 42.000,217.923 42.000 C 217.453 42.000,213.869 45.263,212.432 47.000 C 210.564 49.257,208.673 52.652,208.161 54.667 C 208.056 55.079,207.872 55.642,207.751 55.917 C 207.098 57.408,206.588 64.158,206.974 66.203 C 207.065 66.687,207.231 67.796,207.344 68.667 C 207.457 69.537,207.641 70.438,207.754 70.667 C 207.867 70.896,208.014 71.346,208.080 71.667 C 208.261 72.550,209.525 75.421,210.244 76.583 C 211.509 78.628,212.381 79.718,214.264 81.609 C 216.814 84.171,219.312 86.003,222.667 87.772 C 223.079 87.990,223.529 88.242,223.667 88.333 C 224.078 88.604,227.796 90.333,227.967 90.333 C 228.054 90.333,228.219 90.446,228.333 90.583 C 228.447 90.721,228.642 90.833,228.765 90.833 C 228.889 90.833,229.400 91.021,229.901 91.250 C 230.402 91.479,230.874 91.667,230.950 91.667 C 231.026 91.667,231.350 91.806,231.669 91.977 C 231.989 92.147,232.438 92.343,232.667 92.411 C 232.896 92.480,233.760 92.860,234.588 93.255 C 235.416 93.651,236.294 94.026,236.540 94.087 C 236.785 94.149,237.074 94.305,237.180 94.433 C 237.287 94.562,237.461 94.667,237.567 94.667 C 237.903 94.667,242.599 97.199,242.833 97.507 C 242.879 97.568,243.104 97.713,243.333 97.831 C 243.563 97.950,243.862 98.147,244.000 98.271 C 244.137 98.394,244.600 98.788,245.029 99.144 C 246.125 100.058,247.833 101.914,247.833 102.192 C 247.833 102.321,247.955 102.600,248.104 102.812 C 249.108 104.246,249.419 106.667,248.833 108.500 C 248.650 109.074,248.500 109.631,248.500 109.738 C 248.500 109.846,248.168 110.390,247.762 110.948 C 246.153 113.158,243.802 114.506,239.833 115.491 C 237.568 116.054,232.533 116.273,229.692 115.933 C 228.469 115.787,227.216 115.667,226.907 115.667 C 226.598 115.667,225.999 115.549,225.577 115.406 C 225.155 115.263,224.389 115.077,223.876 114.993 C 223.363 114.910,222.562 114.699,222.096 114.526 C 221.631 114.352,220.912 114.096,220.500 113.957 C 218.914 113.422,218.564 113.287,217.967 112.982 C 217.628 112.808,217.253 112.666,217.134 112.666 C 217.014 112.665,216.692 112.545,216.417 112.399 C 216.142 112.253,215.252 111.784,214.441 111.358 C 212.186 110.174,210.546 109.113,208.944 107.798 C 207.058 106.251,207.135 105.822,207.198 117.467 C 207.255 128.207,207.216 127.827,208.290 128.179 C 208.635 128.291,209.067 128.477,209.250 128.590 C 209.433 128.703,209.872 128.888,210.224 129.000 C 210.577 129.112,211.065 129.307,211.308 129.434 C 211.551 129.561,211.862 129.668,212.000 129.673 C 212.137 129.678,212.550 129.797,212.917 129.937 C 214.804 130.663,219.809 131.740,222.863 132.079 C 224.116 132.218,225.354 132.421,225.613 132.529 C 226.437 132.874,240.723 132.822,242.500 132.468 C 243.279 132.313,244.629 132.103,245.500 132.003 C 246.371 131.902,247.308 131.751,247.583 131.667 C 247.858 131.583,248.721 131.368,249.500 131.189 C 251.668 130.691,252.875 130.348,253.333 130.099 C 253.563 129.974,254.004 129.817,254.314 129.751 C 254.624 129.685,255.235 129.451,255.672 129.232 C 256.108 129.013,256.570 128.833,256.699 128.833 C 256.828 128.833,257.005 128.764,257.092 128.679 C 257.179 128.594,257.770 128.250,258.406 127.914 C 259.042 127.578,259.799 127.122,260.088 126.901 C 260.378 126.681,260.701 126.500,260.807 126.500 C 260.913 126.500,261.000 126.438,261.000 126.361 C 261.000 126.285,261.356 125.987,261.792 125.700 C 263.263 124.728,266.714 121.183,267.331 120.010 C 267.449 119.787,267.611 119.525,267.692 119.427 C 268.105 118.927,268.648 117.978,268.821 117.453 C 268.929 117.127,269.126 116.770,269.259 116.660 C 269.391 116.549,269.500 116.352,269.500 116.222 C 269.500 116.091,269.646 115.682,269.824 115.313 C 270.002 114.944,270.235 114.217,270.342 113.696 C 270.449 113.176,270.610 112.659,270.700 112.548 C 270.890 112.314,271.224 109.869,271.504 106.667 C 271.720 104.199,271.252 98.471,270.757 97.513 C 270.631 97.270,270.475 96.774,270.410 96.411 C 270.115 94.774,268.826 92.182,266.917 89.392 C 266.343 88.553,263.328 85.333,263.116 85.333 C 263.075 85.333,262.714 85.029,262.313 84.656 C 261.691 84.079,257.798 81.412,256.500 80.674 C 255.943 80.357,253.816 79.190,252.910 78.705 C 252.730 78.609,252.171 78.341,251.667 78.111 C 251.162 77.881,250.026 77.350,249.141 76.930 C 248.257 76.510,247.470 76.167,247.394 76.167 C 247.317 76.167,246.841 75.971,246.336 75.733 C 244.163 74.707,243.726 74.517,243.299 74.412 C 243.050 74.351,242.760 74.195,242.653 74.067 C 242.546 73.938,242.347 73.833,242.211 73.833 C 242.074 73.833,241.689 73.686,241.356 73.507 C 241.023 73.327,240.487 73.066,240.167 72.927 C 239.846 72.787,239.471 72.602,239.333 72.514 C 239.196 72.426,238.821 72.228,238.500 72.073 C 237.211 71.451,236.870 71.260,235.750 70.526 C 231.785 67.931,229.807 65.472,229.328 62.543 C 229.188 61.691,229.379 59.791,229.641 59.422 C 229.709 59.328,229.862 58.960,229.983 58.606 C 230.435 57.277,232.484 55.327,234.417 54.387 C 234.783 54.209,235.233 53.980,235.417 53.877 C 236.325 53.371,239.172 52.701,242.000 52.327 C 243.430 52.138,247.862 52.146,248.917 52.339 C 249.375 52.423,250.350 52.576,251.083 52.679 C 251.817 52.782,252.904 52.974,253.500 53.106 C 254.096 53.238,255.071 53.445,255.667 53.566 C 256.714 53.779,257.069 53.890,259.583 54.796 C 261.480 55.479,264.705 56.965,264.806 57.203 C 264.836 57.275,264.957 57.333,265.074 57.333 C 265.192 57.333,265.571 57.558,265.917 57.833 C 266.590 58.369,266.980 58.453,267.300 58.133 C 267.517 57.916,267.597 42.303,267.392 40.130 L 267.286 39.009 266.518 38.726 C 266.096 38.570,265.675 38.393,265.583 38.332 C 265.492 38.271,264.967 38.126,264.417 38.009 C 263.867 37.892,263.331 37.727,263.227 37.643 C 263.122 37.559,262.346 37.378,261.501 37.241 C 260.656 37.105,259.841 36.929,259.691 36.850 C 259.540 36.771,258.742 36.616,257.917 36.505 C 257.092 36.394,256.004 36.203,255.500 36.081 C 253.444 35.582,242.973 35.350,237.750 35.688 M254.167 36.226 C 254.671 36.376,255.887 36.571,256.870 36.659 C 257.852 36.747,258.865 36.925,259.120 37.054 C 259.375 37.184,260.142 37.343,260.824 37.408 C 261.507 37.473,262.332 37.660,262.658 37.823 C 262.983 37.986,263.603 38.166,264.034 38.222 C 264.466 38.279,265.102 38.477,265.449 38.662 C 265.795 38.848,266.205 39.000,266.359 39.000 C 267.210 39.000,267.167 38.481,267.167 48.583 C 267.167 58.708,267.173 58.643,266.322 57.738 C 266.113 57.515,265.848 57.333,265.733 57.333 C 265.618 57.333,265.422 57.231,265.297 57.107 C 265.173 56.982,264.736 56.722,264.327 56.528 C 263.918 56.334,263.471 56.112,263.333 56.034 C 262.242 55.420,261.270 55.000,260.939 55.000 C 260.722 55.000,260.366 54.861,260.147 54.691 C 259.929 54.521,259.450 54.328,259.083 54.263 C 258.717 54.198,258.154 54.012,257.833 53.849 C 257.512 53.685,256.845 53.498,256.349 53.433 C 255.853 53.368,255.250 53.212,255.007 53.087 C 254.765 52.962,253.851 52.779,252.977 52.682 C 252.104 52.584,251.057 52.382,250.653 52.232 C 249.610 51.845,241.308 51.843,240.167 52.229 C 239.754 52.368,238.918 52.562,238.309 52.658 C 237.700 52.755,236.875 52.982,236.476 53.163 C 236.076 53.345,235.629 53.494,235.481 53.496 C 235.333 53.498,235.033 53.640,234.814 53.810 C 234.596 53.981,234.241 54.176,234.026 54.243 C 233.494 54.410,232.167 55.319,232.167 55.517 C 232.167 55.605,232.026 55.731,231.854 55.797 C 231.495 55.934,229.833 57.871,229.833 58.152 C 229.833 58.255,229.638 58.713,229.399 59.170 C 228.845 60.229,228.834 63.690,229.383 64.296 C 229.548 64.478,229.753 64.880,229.839 65.189 C 229.925 65.497,230.296 66.078,230.664 66.479 C 231.032 66.881,231.334 67.256,231.335 67.313 C 231.337 67.437,232.415 68.500,232.538 68.500 C 232.586 68.500,232.915 68.769,233.271 69.098 C 234.004 69.776,235.535 70.833,235.783 70.833 C 235.874 70.833,236.082 70.981,236.246 71.162 C 236.410 71.343,236.703 71.541,236.897 71.601 C 237.091 71.661,237.438 71.841,237.667 72.000 C 237.896 72.159,238.271 72.346,238.500 72.414 C 238.729 72.482,239.067 72.672,239.250 72.834 C 239.433 72.997,239.822 73.181,240.113 73.243 C 240.405 73.304,240.729 73.458,240.833 73.583 C 240.938 73.709,241.262 73.864,241.553 73.928 C 241.845 73.991,242.262 74.184,242.481 74.355 C 242.699 74.526,243.046 74.667,243.250 74.667 C 243.454 74.667,243.801 74.806,244.019 74.976 C 244.238 75.146,244.717 75.380,245.083 75.497 C 245.450 75.613,245.862 75.805,246.000 75.924 C 246.137 76.042,246.529 76.190,246.869 76.253 C 247.210 76.317,247.572 76.469,247.674 76.592 C 247.776 76.715,248.228 76.938,248.679 77.088 C 249.131 77.237,249.500 77.421,249.500 77.495 C 249.500 77.569,249.755 77.677,250.066 77.736 C 250.378 77.794,250.821 77.990,251.051 78.171 C 251.281 78.352,251.545 78.500,251.638 78.500 C 251.805 78.500,253.430 79.329,254.962 80.195 C 255.396 80.440,255.988 80.753,256.279 80.890 C 256.769 81.121,257.333 81.484,260.138 83.373 C 261.724 84.442,266.328 88.649,266.332 89.033 C 266.333 89.097,266.577 89.496,266.875 89.919 C 267.637 91.001,268.102 91.782,268.574 92.776 C 268.798 93.249,269.055 93.681,269.145 93.737 C 269.234 93.792,269.358 94.080,269.420 94.377 C 269.482 94.674,269.635 95.079,269.760 95.277 C 269.885 95.474,270.060 96.087,270.149 96.638 C 270.238 97.188,270.439 97.887,270.595 98.190 C 271.313 99.577,271.245 110.057,270.507 111.960 C 270.320 112.442,270.167 113.043,270.167 113.296 C 270.167 113.548,270.017 114.035,269.833 114.377 C 269.650 114.719,269.500 115.093,269.499 115.208 C 269.499 115.323,269.274 115.867,269.000 116.417 C 268.726 116.967,268.501 117.501,268.501 117.605 C 268.500 117.708,268.383 117.889,268.240 118.008 C 268.098 118.127,267.874 118.454,267.744 118.737 C 267.285 119.729,265.104 122.457,263.913 123.528 C 262.250 125.022,260.346 126.500,260.082 126.500 C 259.968 126.500,259.777 126.617,259.659 126.760 C 259.540 126.902,259.193 127.124,258.888 127.251 C 258.583 127.379,258.333 127.562,258.333 127.658 C 258.333 127.755,258.228 127.833,258.100 127.833 C 257.972 127.833,257.439 128.058,256.917 128.333 C 256.394 128.608,255.854 128.833,255.718 128.833 C 255.581 128.833,255.279 128.983,255.045 129.167 C 254.812 129.350,254.418 129.500,254.169 129.500 C 253.920 129.500,253.364 129.688,252.933 129.917 C 252.502 130.146,251.909 130.335,251.616 130.337 C 251.323 130.339,250.776 130.480,250.400 130.651 C 250.024 130.822,249.236 131.016,248.650 131.084 C 248.063 131.151,247.133 131.346,246.583 131.517 C 246.033 131.689,245.171 131.831,244.667 131.834 C 244.162 131.837,243.000 131.954,242.083 132.093 C 238.328 132.664,237.575 132.705,232.667 132.602 C 229.294 132.531,227.410 132.422,226.667 132.254 C 226.071 132.120,224.833 131.962,223.917 131.904 C 223.000 131.846,221.688 131.662,221.000 131.497 C 220.313 131.331,219.262 131.146,218.667 131.085 C 218.071 131.024,217.187 130.830,216.702 130.654 C 216.217 130.478,215.595 130.333,215.318 130.333 C 215.041 130.333,214.480 130.181,214.071 129.994 C 213.662 129.808,213.001 129.595,212.604 129.520 C 212.206 129.446,211.703 129.261,211.486 129.109 C 211.270 128.957,210.916 128.833,210.701 128.833 C 210.486 128.833,209.996 128.653,209.613 128.433 C 209.230 128.213,208.683 127.984,208.398 127.925 C 208.070 127.857,207.810 127.664,207.690 127.401 C 207.439 126.850,207.418 107.570,207.669 107.415 C 207.762 107.358,208.230 107.640,208.710 108.041 C 209.633 108.813,211.236 109.928,211.975 110.313 C 212.218 110.440,212.567 110.675,212.750 110.836 C 212.933 110.997,213.271 111.183,213.500 111.251 C 213.729 111.318,214.029 111.467,214.167 111.583 C 214.304 111.698,214.698 111.892,215.042 112.013 C 215.385 112.134,215.667 112.291,215.667 112.360 C 215.667 112.430,215.985 112.578,216.375 112.689 C 216.765 112.800,217.196 112.983,217.333 113.097 C 217.471 113.210,217.921 113.391,218.333 113.500 C 218.746 113.609,219.196 113.795,219.333 113.913 C 219.471 114.032,219.979 114.212,220.463 114.314 C 220.947 114.415,221.509 114.604,221.713 114.733 C 221.917 114.863,222.496 115.020,223.000 115.083 C 223.504 115.146,224.137 115.305,224.406 115.435 C 224.675 115.565,225.613 115.749,226.489 115.843 C 227.366 115.938,228.470 116.124,228.942 116.257 C 230.183 116.608,235.894 116.596,237.257 116.241 C 237.803 116.098,238.737 115.938,239.333 115.885 C 239.929 115.832,240.717 115.656,241.083 115.493 C 241.450 115.330,242.050 115.143,242.417 115.077 C 242.783 115.012,243.196 114.867,243.333 114.756 C 243.471 114.646,243.846 114.451,244.167 114.325 C 245.854 113.660,248.663 110.958,248.666 109.998 C 248.666 109.859,248.835 109.446,249.041 109.081 C 249.365 108.505,249.415 108.174,249.416 106.583 L 249.417 104.750 248.614 103.083 C 247.649 101.077,244.428 97.667,243.498 97.667 C 243.407 97.667,243.333 97.593,243.333 97.503 C 243.333 97.413,242.948 97.131,242.478 96.878 C 242.007 96.624,241.426 96.310,241.187 96.180 C 240.948 96.050,240.653 95.844,240.531 95.722 C 240.410 95.600,240.109 95.451,239.863 95.392 C 239.618 95.332,239.238 95.144,239.019 94.975 C 238.801 94.805,238.496 94.667,238.343 94.667 C 238.190 94.667,237.811 94.479,237.500 94.250 C 237.189 94.021,236.837 93.833,236.718 93.833 C 236.598 93.833,236.106 93.634,235.625 93.391 C 233.861 92.500,233.573 92.373,233.053 92.260 C 232.762 92.197,232.435 92.040,232.328 91.910 C 232.221 91.781,231.859 91.629,231.525 91.572 C 231.190 91.515,230.713 91.326,230.465 91.151 C 230.217 90.976,229.923 90.833,229.812 90.833 C 229.701 90.833,229.116 90.604,228.513 90.323 C 226.864 89.557,226.127 89.218,225.667 89.017 C 225.438 88.918,225.137 88.760,225.000 88.668 C 224.862 88.575,224.563 88.420,224.333 88.322 C 224.104 88.224,223.542 87.928,223.083 87.664 C 222.625 87.400,222.010 87.061,221.716 86.910 C 221.422 86.759,221.094 86.530,220.987 86.401 C 220.880 86.272,220.661 86.167,220.500 86.167 C 220.339 86.167,220.110 86.050,219.991 85.906 C 219.873 85.763,219.357 85.373,218.846 85.040 C 216.169 83.294,212.687 79.833,211.093 77.333 C 210.830 76.921,210.487 76.394,210.331 76.163 C 210.175 75.933,209.989 75.558,209.918 75.330 C 209.847 75.103,209.659 74.729,209.499 74.500 C 209.339 74.271,209.153 73.821,209.086 73.500 C 209.018 73.179,208.857 72.796,208.726 72.648 C 208.596 72.500,208.422 71.962,208.339 71.452 C 208.256 70.942,208.065 70.286,207.913 69.994 C 207.731 69.641,207.589 68.728,207.490 67.273 C 207.408 66.069,207.298 64.746,207.247 64.333 C 207.069 62.914,207.614 57.090,207.994 56.345 C 208.181 55.979,208.333 55.429,208.333 55.122 C 208.333 54.815,208.445 54.418,208.581 54.240 C 208.717 54.062,208.912 53.617,209.015 53.252 C 209.117 52.886,209.343 52.387,209.517 52.142 C 209.691 51.898,209.833 51.589,209.833 51.455 C 209.833 51.321,209.983 51.021,210.167 50.788 C 210.350 50.555,210.500 50.308,210.500 50.239 C 210.500 50.171,210.688 49.869,210.917 49.569 C 211.146 49.268,211.333 48.951,211.333 48.863 C 211.333 48.461,216.330 43.352,217.295 42.768 C 218.436 42.077,218.730 41.884,219.038 41.625 C 219.228 41.465,219.471 41.333,219.576 41.333 C 219.682 41.333,220.023 41.146,220.333 40.917 C 220.644 40.688,220.993 40.500,221.108 40.500 C 221.224 40.500,221.595 40.313,221.933 40.083 C 222.270 39.854,222.655 39.667,222.789 39.667 C 222.922 39.667,223.221 39.517,223.455 39.333 C 223.688 39.150,224.074 38.998,224.314 38.995 C 224.554 38.992,225.125 38.805,225.583 38.580 C 226.042 38.354,226.626 38.169,226.882 38.168 C 227.137 38.167,227.627 38.024,227.969 37.849 C 228.311 37.675,228.964 37.481,229.421 37.419 C 229.877 37.357,230.682 37.162,231.209 36.986 C 231.736 36.810,232.524 36.665,232.959 36.663 C 233.394 36.661,234.237 36.543,234.833 36.400 C 236.848 35.917,237.901 35.869,245.583 35.911 C 252.116 35.947,253.386 35.993,254.167 36.226 M52.249 37.375 C 52.199 37.581,52.178 41.462,52.204 46.000 L 52.250 54.250 65.417 54.333 C 72.658 54.379,78.677 54.477,78.792 54.552 C 78.957 54.659,79.000 62.479,79.000 92.734 C 79.000 129.382,79.011 130.792,79.305 131.058 C 79.672 131.390,99.399 131.488,100.011 131.161 C 100.328 130.991,100.333 130.385,100.333 92.837 C 100.333 62.500,100.376 54.659,100.542 54.552 C 100.656 54.477,106.670 54.396,113.905 54.370 C 123.115 54.338,127.127 54.269,127.280 54.141 C 127.580 53.893,127.604 38.078,127.307 37.425 L 127.113 37.000 89.726 37.000 L 52.340 37.000 52.249 37.375 M139.934 37.264 C 139.723 37.814,139.821 130.921,140.033 131.133 C 140.324 131.424,196.009 131.424,196.300 131.133 C 196.512 130.921,196.606 114.804,196.399 114.264 C 196.307 114.026,194.627 114.000,179.086 114.000 C 163.281 114.000,161.855 113.977,161.645 113.724 C 161.337 113.353,161.213 93.096,161.517 92.730 C 161.676 92.538,164.153 92.500,176.667 92.500 C 189.096 92.500,191.658 92.462,191.814 92.273 C 191.951 92.109,191.991 89.732,191.960 83.731 L 191.917 75.417 176.883 75.333 C 164.860 75.267,161.807 75.207,161.633 75.033 C 161.245 74.645,161.233 54.751,161.621 54.561 C 161.784 54.482,169.192 54.379,178.083 54.333 L 194.250 54.250 194.295 46.000 C 194.329 39.868,194.289 37.654,194.142 37.375 L 193.944 37.000 166.990 37.000 C 142.565 37.000,140.026 37.025,139.934 37.264 M278.249 37.375 C 278.199 37.581,278.178 41.462,278.204 46.000 L 278.250 54.250 291.417 54.333 C 298.658 54.379,304.715 54.481,304.875 54.559 C 305.152 54.695,305.167 56.683,305.167 92.818 C 305.167 122.241,305.212 130.979,305.367 131.133 C 305.656 131.422,325.844 131.422,326.133 131.133 C 326.288 130.979,326.333 122.239,326.333 92.808 L 326.333 54.682 326.958 54.509 C 327.367 54.395,332.042 54.335,340.441 54.334 C 352.010 54.333,353.308 54.307,353.399 54.070 C 353.572 53.619,353.514 37.892,353.337 37.428 L 353.175 37.000 315.757 37.000 L 278.340 37.000 278.249 37.375 M127.167 45.750 L 127.167 54.167 114.094 54.167 C 106.011 54.167,100.859 54.229,100.595 54.329 L 100.167 54.491 100.125 92.704 L 100.083 130.917 89.750 130.917 L 79.417 130.917 79.375 92.758 C 79.346 66.442,79.278 54.545,79.158 54.425 C 79.041 54.307,74.655 54.223,65.783 54.167 L 52.583 54.083 52.540 45.844 C 52.506 39.363,52.542 37.577,52.707 37.472 C 52.822 37.398,69.623 37.337,90.042 37.336 L 127.167 37.333 127.167 45.750 M193.960 45.792 L 194.003 54.167 177.872 54.167 C 163.542 54.167,161.699 54.196,161.370 54.426 L 161.000 54.686 161.000 64.833 L 161.000 74.981 161.370 75.241 C 161.699 75.471,163.431 75.500,176.705 75.500 L 191.670 75.500 191.627 83.875 L 191.583 92.250 176.516 92.293 C 165.671 92.323,161.385 92.388,161.223 92.522 C 161.037 92.677,161.005 94.562,161.040 103.308 L 161.083 113.907 161.500 114.118 C 161.828 114.283,165.586 114.329,179.125 114.331 L 196.333 114.333 196.333 122.667 L 196.333 131.000 168.167 131.000 L 140.000 131.000 140.000 84.278 C 140.000 58.581,140.050 37.505,140.112 37.444 C 140.173 37.383,152.304 37.351,167.070 37.374 L 193.917 37.417 193.960 45.792 M353.127 45.792 L 353.170 54.167 340.096 54.167 C 332.012 54.167,326.859 54.229,326.595 54.329 L 326.167 54.491 326.125 92.704 L 326.083 130.917 315.750 130.917 L 305.417 130.917 305.375 92.704 L 305.333 54.491 304.905 54.329 C 304.642 54.229,299.581 54.167,291.669 54.167 C 284.625 54.167,278.742 54.121,278.597 54.066 C 278.171 53.902,278.198 37.762,278.625 37.513 C 278.822 37.399,291.016 37.355,316.000 37.380 L 353.083 37.417 353.127 45.792 " stroke="none" fill="#7c7c7c" fill-rule="evenodd"></path></g></svg>