<svg width="440" height="381" viewBox="0 0 440 381" fill="none" xmlns="http://www.w3.org/2000/svg">
<path d="M335.188 124.859H290.297L279.602 94.8883C278.863 92.8374 277.509 91.0647 275.725 89.8123C273.941 88.5598 271.814 87.8887 269.634 87.8906H168.366C163.91 87.8906 159.916 90.6963 158.431 94.8883L147.703 124.859H102.812C88.223 124.859 76.4062 136.676 76.4062 151.266V301.781C76.4062 316.371 88.223 328.188 102.812 328.188H335.188C349.777 328.188 361.594 316.371 361.594 301.781V151.266C361.594 136.676 349.777 124.859 335.188 124.859ZM337.828 301.781C337.828 303.234 336.64 304.422 335.188 304.422H102.812C101.36 304.422 100.172 303.234 100.172 301.781V151.266C100.172 149.813 101.36 148.625 102.812 148.625H164.438L170.082 132.847L177.641 111.656H260.326L267.885 132.847L273.529 148.625H335.188C336.64 148.625 337.828 149.813 337.828 151.266V301.781ZM219 169.75C189.821 169.75 166.188 193.384 166.188 222.562C166.188 251.741 189.821 275.375 219 275.375C248.179 275.375 271.812 251.741 271.812 222.562C271.812 193.384 248.179 169.75 219 169.75ZM219 254.25C201.506 254.25 187.312 240.057 187.312 222.562C187.312 205.068 201.506 190.875 219 190.875C236.494 190.875 250.688 205.068 250.688 222.562C250.688 240.057 236.494 254.25 219 254.25Z" fill="#333333"/>
<path d="M110.056 52H108.294C108.19 51.4934 108.008 51.0483 107.748 50.6648C107.492 50.2812 107.179 49.9593 106.81 49.6989C106.445 49.4337 106.041 49.2348 105.596 49.1023C105.15 48.9697 104.686 48.9034 104.203 48.9034C103.323 48.9034 102.525 49.1259 101.81 49.571C101.1 50.0161 100.534 50.6719 100.113 51.5384C99.6959 52.4048 99.4876 53.4678 99.4876 54.7273C99.4876 55.9867 99.6959 57.0497 100.113 57.9162C100.534 58.7827 101.1 59.4384 101.81 59.8835C102.525 60.3286 103.323 60.5511 104.203 60.5511C104.686 60.5511 105.15 60.4848 105.596 60.3523C106.041 60.2197 106.445 60.0232 106.81 59.7628C107.179 59.4976 107.492 59.1733 107.748 58.7898C108.008 58.4015 108.19 57.9564 108.294 57.4545H110.056C109.923 58.1979 109.682 58.8632 109.331 59.4503C108.981 60.0374 108.545 60.5369 108.025 60.9489C107.504 61.3561 106.919 61.6662 106.27 61.8793C105.626 62.0923 104.937 62.1989 104.203 62.1989C102.963 62.1989 101.86 61.8958 100.894 61.2898C99.9279 60.6837 99.168 59.822 98.614 58.7045C98.06 57.5871 97.783 56.2614 97.783 54.7273C97.783 53.1932 98.06 51.8674 98.614 50.75C99.168 49.6326 99.9279 48.7708 100.894 48.1648C101.86 47.5587 102.963 47.2557 104.203 47.2557C104.937 47.2557 105.626 47.3622 106.27 47.5753C106.919 47.7884 107.504 48.1009 108.025 48.5128C108.545 48.92 108.981 49.4171 109.331 50.0043C109.682 50.5866 109.923 51.2519 110.056 52ZM114.231 47.4545V62H112.555V47.4545H114.231ZM117.181 62V51.0909H118.857V62H117.181ZM118.033 49.2727C117.706 49.2727 117.425 49.1615 117.188 48.9389C116.956 48.7164 116.84 48.4489 116.84 48.1364C116.84 47.8239 116.956 47.5563 117.188 47.3338C117.425 47.1113 117.706 47 118.033 47C118.36 47 118.639 47.1113 118.871 47.3338C119.108 47.5563 119.226 47.8239 119.226 48.1364C119.226 48.4489 119.108 48.7164 118.871 48.9389C118.639 49.1615 118.36 49.2727 118.033 49.2727ZM126.239 62.2273C125.216 62.2273 124.335 61.9858 123.597 61.5028C122.858 61.0199 122.29 60.3546 121.892 59.5071C121.494 58.6596 121.296 57.6913 121.296 56.6023C121.296 55.4943 121.499 54.5166 121.906 53.669C122.318 52.8168 122.891 52.1515 123.625 51.6733C124.364 51.1903 125.225 50.9489 126.21 50.9489C126.977 50.9489 127.669 51.0909 128.284 51.375C128.9 51.6591 129.404 52.0568 129.797 52.5682C130.19 53.0795 130.434 53.6761 130.528 54.358H128.852C128.725 53.8608 128.44 53.4205 128 53.0369C127.564 52.6487 126.977 52.4545 126.239 52.4545C125.585 52.4545 125.012 52.625 124.52 52.9659C124.032 53.3021 123.651 53.7779 123.377 54.3935C123.107 55.0043 122.972 55.7216 122.972 56.5455C122.972 57.3883 123.104 58.1222 123.369 58.7472C123.639 59.3722 124.018 59.8575 124.506 60.2031C124.998 60.5488 125.576 60.7216 126.239 60.7216C126.674 60.7216 127.07 60.6458 127.425 60.4943C127.78 60.3428 128.081 60.125 128.327 59.8409C128.573 59.5568 128.748 59.2159 128.852 58.8182H130.528C130.434 59.4621 130.199 60.0421 129.825 60.5582C129.456 61.0696 128.966 61.4768 128.355 61.7798C127.749 62.0781 127.044 62.2273 126.239 62.2273ZM134.421 58.0227L134.393 55.9489H134.734L139.507 51.0909H141.58L136.495 56.233H136.353L134.421 58.0227ZM132.859 62V47.4545H134.535V62H132.859ZM139.791 62L135.529 56.6023L136.722 55.4375L141.921 62H139.791ZM153.867 51.0909V52.5114H148.214V51.0909H153.867ZM149.861 48.4773H151.537V58.875C151.537 59.3485 151.606 59.7036 151.743 59.9403C151.885 60.1723 152.065 60.3286 152.283 60.4091C152.506 60.4848 152.74 60.5227 152.986 60.5227C153.171 60.5227 153.322 60.5133 153.441 60.4943C153.559 60.4706 153.654 60.4517 153.725 60.4375L154.066 61.9432C153.952 61.9858 153.794 62.0284 153.59 62.071C153.386 62.1184 153.128 62.142 152.816 62.142C152.342 62.142 151.878 62.0402 151.424 61.8366C150.974 61.633 150.6 61.3229 150.302 60.9062C150.008 60.4896 149.861 59.964 149.861 59.3295V48.4773ZM160.583 62.2273C159.598 62.2273 158.734 61.9929 157.991 61.5241C157.252 61.0554 156.674 60.3996 156.258 59.5568C155.846 58.714 155.64 57.7292 155.64 56.6023C155.64 55.4659 155.846 54.474 156.258 53.6264C156.674 52.7789 157.252 52.1207 157.991 51.652C158.734 51.1832 159.598 50.9489 160.583 50.9489C161.568 50.9489 162.43 51.1832 163.168 51.652C163.912 52.1207 164.489 52.7789 164.901 53.6264C165.318 54.474 165.526 55.4659 165.526 56.6023C165.526 57.7292 165.318 58.714 164.901 59.5568C164.489 60.3996 163.912 61.0554 163.168 61.5241C162.43 61.9929 161.568 62.2273 160.583 62.2273ZM160.583 60.7216C161.331 60.7216 161.947 60.5298 162.43 60.1463C162.912 59.7628 163.27 59.2585 163.502 58.6335C163.734 58.0085 163.85 57.3314 163.85 56.6023C163.85 55.8731 163.734 55.1937 163.502 54.5639C163.27 53.9342 162.912 53.4252 162.43 53.0369C161.947 52.6487 161.331 52.4545 160.583 52.4545C159.835 52.4545 159.219 52.6487 158.736 53.0369C158.253 53.4252 157.896 53.9342 157.664 54.5639C157.432 55.1937 157.316 55.8731 157.316 56.6023C157.316 57.3314 157.432 58.0085 157.664 58.6335C157.896 59.2585 158.253 59.7628 158.736 60.1463C159.219 60.5298 159.835 60.7216 160.583 60.7216ZM180.345 57.5398V51.0909H182.021V62H180.345V60.1534H180.231C179.975 60.7074 179.578 61.1785 179.038 61.5668C178.498 61.9503 177.816 62.142 176.992 62.142C176.311 62.142 175.705 61.9929 175.174 61.6946C174.644 61.3916 174.227 60.937 173.924 60.331C173.621 59.7202 173.47 58.9508 173.47 58.0227V51.0909H175.146V57.9091C175.146 58.7045 175.368 59.339 175.813 59.8125C176.263 60.286 176.836 60.5227 177.532 60.5227C177.949 60.5227 178.373 60.4162 178.804 60.2031C179.239 59.9901 179.604 59.6634 179.897 59.223C180.196 58.7827 180.345 58.2216 180.345 57.5398ZM184.971 66.0909V51.0909H186.59V52.8239H186.789C186.912 52.6345 187.083 52.393 187.3 52.0994C187.523 51.8011 187.84 51.536 188.252 51.304C188.669 51.0672 189.232 50.9489 189.942 50.9489C190.861 50.9489 191.671 51.1785 192.371 51.6378C193.072 52.0971 193.619 52.7481 194.012 53.5909C194.405 54.4337 194.601 55.428 194.601 56.5739C194.601 57.7292 194.405 58.7306 194.012 59.5781C193.619 60.4209 193.075 61.0743 192.378 61.5384C191.682 61.9976 190.88 62.2273 189.971 62.2273C189.27 62.2273 188.709 62.1113 188.288 61.8793C187.866 61.6425 187.542 61.375 187.315 61.0767C187.087 60.7737 186.912 60.5227 186.789 60.3239H186.647V66.0909H184.971ZM186.619 56.5455C186.619 57.3693 186.739 58.0961 186.981 58.7259C187.222 59.3509 187.575 59.8409 188.039 60.196C188.503 60.5464 189.071 60.7216 189.744 60.7216C190.444 60.7216 191.029 60.5369 191.498 60.1676C191.971 59.7936 192.326 59.2917 192.563 58.6619C192.805 58.0275 192.925 57.322 192.925 56.5455C192.925 55.7784 192.807 55.0871 192.57 54.4716C192.338 53.8513 191.985 53.3613 191.512 53.0014C191.043 52.6368 190.454 52.4545 189.744 52.4545C189.062 52.4545 188.489 52.6274 188.025 52.973C187.561 53.3139 187.21 53.7921 186.974 54.4077C186.737 55.0185 186.619 55.7311 186.619 56.5455ZM198.714 47.4545V62H197.038V47.4545H198.714ZM206.096 62.2273C205.111 62.2273 204.247 61.9929 203.504 61.5241C202.765 61.0554 202.188 60.3996 201.771 59.5568C201.359 58.714 201.153 57.7292 201.153 56.6023C201.153 55.4659 201.359 54.474 201.771 53.6264C202.188 52.7789 202.765 52.1207 203.504 51.652C204.247 51.1832 205.111 50.9489 206.096 50.9489C207.081 50.9489 207.943 51.1832 208.681 51.652C209.425 52.1207 210.002 52.7789 210.414 53.6264C210.831 54.474 211.039 55.4659 211.039 56.6023C211.039 57.7292 210.831 58.714 210.414 59.5568C210.002 60.3996 209.425 61.0554 208.681 61.5241C207.943 61.9929 207.081 62.2273 206.096 62.2273ZM206.096 60.7216C206.844 60.7216 207.46 60.5298 207.943 60.1463C208.426 59.7628 208.783 59.2585 209.015 58.6335C209.247 58.0085 209.363 57.3314 209.363 56.6023C209.363 55.8731 209.247 55.1937 209.015 54.5639C208.783 53.9342 208.426 53.4252 207.943 53.0369C207.46 52.6487 206.844 52.4545 206.096 52.4545C205.348 52.4545 204.733 52.6487 204.25 53.0369C203.767 53.4252 203.409 53.9342 203.177 54.5639C202.945 55.1937 202.829 55.8731 202.829 56.6023C202.829 57.3314 202.945 58.0085 203.177 58.6335C203.409 59.2585 203.767 59.7628 204.25 60.1463C204.733 60.5298 205.348 60.7216 206.096 60.7216ZM216.688 62.2557C215.997 62.2557 215.37 62.1255 214.806 61.8651C214.243 61.5999 213.795 61.2188 213.464 60.7216C213.132 60.2197 212.967 59.6136 212.967 58.9034C212.967 58.2784 213.09 57.7718 213.336 57.3835C213.582 56.9905 213.911 56.6828 214.323 56.4602C214.735 56.2377 215.19 56.072 215.687 55.9631C216.189 55.8494 216.693 55.7595 217.2 55.6932C217.862 55.608 218.4 55.544 218.812 55.5014C219.228 55.4541 219.532 55.3759 219.721 55.267C219.915 55.1581 220.012 54.9687 220.012 54.6989V54.642C220.012 53.9413 219.82 53.3968 219.437 53.0085C219.058 52.6203 218.483 52.4261 217.711 52.4261C216.911 52.4261 216.283 52.6013 215.829 52.9517C215.374 53.3021 215.055 53.6761 214.87 54.0739L213.279 53.5057C213.563 52.8428 213.942 52.3267 214.415 51.9574C214.894 51.5833 215.415 51.3229 215.978 51.1761C216.546 51.0246 217.105 50.9489 217.654 50.9489C218.005 50.9489 218.407 50.9915 218.862 51.0767C219.321 51.1572 219.764 51.3253 220.19 51.581C220.621 51.8366 220.978 52.2225 221.262 52.7386C221.546 53.2547 221.688 53.946 221.688 54.8125V62H220.012V60.5227H219.927C219.813 60.7595 219.624 61.0128 219.359 61.2827C219.094 61.5526 218.741 61.7822 218.3 61.9716C217.86 62.161 217.323 62.2557 216.688 62.2557ZM216.944 60.75C217.607 60.75 218.165 60.6198 218.62 60.3594C219.079 60.099 219.425 59.7628 219.657 59.3509C219.894 58.9389 220.012 58.5057 220.012 58.0511V56.517C219.941 56.6023 219.785 56.6804 219.543 56.7514C219.307 56.8177 219.032 56.8769 218.719 56.929C218.412 56.9763 218.111 57.0189 217.817 57.0568C217.529 57.09 217.294 57.1184 217.114 57.142C216.679 57.1989 216.272 57.2912 215.893 57.419C215.519 57.5421 215.216 57.7292 214.984 57.9801C214.756 58.2263 214.643 58.5625 214.643 58.9886C214.643 59.571 214.858 60.0114 215.289 60.3097C215.725 60.6032 216.276 60.75 216.944 60.75ZM228.747 62.2273C227.838 62.2273 227.035 61.9976 226.339 61.5384C225.643 61.0743 225.099 60.4209 224.706 59.5781C224.313 58.7306 224.116 57.7292 224.116 56.5739C224.116 55.428 224.313 54.4337 224.706 53.5909C225.099 52.7481 225.646 52.0971 226.346 51.6378C227.047 51.1785 227.857 50.9489 228.775 50.9489C229.485 50.9489 230.047 51.0672 230.459 51.304C230.875 51.536 231.192 51.8011 231.41 52.0994C231.633 52.393 231.806 52.6345 231.929 52.8239H232.071V47.4545H233.747V62H232.128V60.3239H231.929C231.806 60.5227 231.63 60.7737 231.403 61.0767C231.176 61.375 230.851 61.6425 230.43 61.8793C230.009 62.1113 229.448 62.2273 228.747 62.2273ZM228.974 60.7216C229.646 60.7216 230.215 60.5464 230.679 60.196C231.143 59.8409 231.495 59.3509 231.737 58.7259C231.978 58.0961 232.099 57.3693 232.099 56.5455C232.099 55.7311 231.981 55.0185 231.744 54.4077C231.507 53.7921 231.157 53.3139 230.693 52.973C230.229 52.6274 229.656 52.4545 228.974 52.4545C228.264 52.4545 227.672 52.6368 227.199 53.0014C226.73 53.3613 226.377 53.8513 226.14 54.4716C225.908 55.0871 225.792 55.7784 225.792 56.5455C225.792 57.322 225.911 58.0275 226.147 58.6619C226.389 59.2917 226.744 59.7936 227.213 60.1676C227.686 60.5369 228.273 60.7216 228.974 60.7216ZM243.514 66.0909C243.23 66.0909 242.977 66.0672 242.754 66.0199C242.531 65.9773 242.378 65.9347 242.292 65.892L242.718 64.4148C243.126 64.5189 243.486 64.5568 243.798 64.5284C244.111 64.5 244.388 64.3603 244.629 64.1094C244.875 63.8632 245.1 63.4631 245.304 62.9091L245.616 62.0568L241.582 51.0909H243.4L246.412 59.7841H246.525L249.537 51.0909H251.355L246.724 63.5909C246.516 64.1544 246.258 64.6207 245.95 64.9901C245.642 65.3641 245.285 65.6411 244.878 65.821C244.475 66.0009 244.021 66.0909 243.514 66.0909ZM257.488 62.2273C256.504 62.2273 255.639 61.9929 254.896 61.5241C254.157 61.0554 253.58 60.3996 253.163 59.5568C252.751 58.714 252.545 57.7292 252.545 56.6023C252.545 55.4659 252.751 54.474 253.163 53.6264C253.58 52.7789 254.157 52.1207 254.896 51.652C255.639 51.1832 256.504 50.9489 257.488 50.9489C258.473 50.9489 259.335 51.1832 260.074 51.652C260.817 52.1207 261.395 52.7789 261.807 53.6264C262.223 54.474 262.432 55.4659 262.432 56.6023C262.432 57.7292 262.223 58.714 261.807 59.5568C261.395 60.3996 260.817 61.0554 260.074 61.5241C259.335 61.9929 258.473 62.2273 257.488 62.2273ZM257.488 60.7216C258.237 60.7216 258.852 60.5298 259.335 60.1463C259.818 59.7628 260.175 59.2585 260.407 58.6335C260.639 58.0085 260.755 57.3314 260.755 56.6023C260.755 55.8731 260.639 55.1937 260.407 54.5639C260.175 53.9342 259.818 53.4252 259.335 53.0369C258.852 52.6487 258.237 52.4545 257.488 52.4545C256.74 52.4545 256.125 52.6487 255.642 53.0369C255.159 53.4252 254.801 53.9342 254.569 54.5639C254.337 55.1937 254.221 55.8731 254.221 56.6023C254.221 57.3314 254.337 58.0085 254.569 58.6335C254.801 59.2585 255.159 59.7628 255.642 60.1463C256.125 60.5298 256.74 60.7216 257.488 60.7216ZM271.745 57.5398V51.0909H273.421V62H271.745V60.1534H271.632C271.376 60.7074 270.978 61.1785 270.438 61.5668C269.899 61.9503 269.217 62.142 268.393 62.142C267.711 62.142 267.105 61.9929 266.575 61.6946C266.044 61.3916 265.628 60.937 265.325 60.331C265.022 59.7202 264.87 58.9508 264.87 58.0227V51.0909H266.546V57.9091C266.546 58.7045 266.769 59.339 267.214 59.8125C267.664 60.286 268.237 60.5227 268.933 60.5227C269.349 60.5227 269.773 60.4162 270.204 60.2031C270.64 59.9901 271.004 59.6634 271.298 59.223C271.596 58.7827 271.745 58.2216 271.745 57.5398ZM276.371 62V51.0909H277.991V52.7386H278.104C278.303 52.1989 278.663 51.7609 279.184 51.4247C279.705 51.0885 280.292 50.9205 280.945 50.9205C281.068 50.9205 281.222 50.9228 281.407 50.9276C281.591 50.9323 281.731 50.9394 281.826 50.9489V52.6534C281.769 52.6392 281.639 52.6179 281.435 52.5895C281.236 52.5563 281.026 52.5398 280.803 52.5398C280.273 52.5398 279.799 52.651 279.383 52.8736C278.971 53.0914 278.644 53.3944 278.403 53.7827C278.166 54.1662 278.047 54.6042 278.047 55.0966V62H276.371ZM289.198 62V51.0909H290.874V62H289.198ZM290.05 49.2727C289.723 49.2727 289.442 49.1615 289.205 48.9389C288.973 48.7164 288.857 48.4489 288.857 48.1364C288.857 47.8239 288.973 47.5563 289.205 47.3338C289.442 47.1113 289.723 47 290.05 47C290.377 47 290.656 47.1113 290.888 47.3338C291.125 47.5563 291.243 47.8239 291.243 48.1364C291.243 48.4489 291.125 48.7164 290.888 48.9389C290.656 49.1615 290.377 49.2727 290.05 49.2727ZM293.824 62V51.0909H295.443V52.7955H295.585C295.812 52.2131 296.179 51.7609 296.686 51.4389C297.193 51.1122 297.801 50.9489 298.511 50.9489C299.231 50.9489 299.83 51.1122 300.308 51.4389C300.791 51.7609 301.168 52.2131 301.437 52.7955H301.551C301.83 52.232 302.249 51.7846 302.808 51.4531C303.367 51.117 304.037 50.9489 304.818 50.9489C305.793 50.9489 306.591 51.2543 307.212 51.8651C307.832 52.4711 308.142 53.4157 308.142 54.6989V62H306.466V54.6989C306.466 53.8939 306.246 53.3187 305.805 52.973C305.365 52.6274 304.847 52.4545 304.25 52.4545C303.483 52.4545 302.889 52.6866 302.467 53.1506C302.046 53.6098 301.835 54.1922 301.835 54.8977V62H300.131V54.5284C300.131 53.9081 299.929 53.4086 299.527 53.0298C299.124 52.6463 298.606 52.4545 297.972 52.4545C297.536 52.4545 297.129 52.5705 296.75 52.8026C296.376 53.0346 296.073 53.3565 295.841 53.7685C295.614 54.1757 295.5 54.6468 295.5 55.1818V62H293.824ZM314.297 62.2557C313.606 62.2557 312.978 62.1255 312.415 61.8651C311.851 61.5999 311.404 61.2188 311.072 60.7216C310.741 60.2197 310.575 59.6136 310.575 58.9034C310.575 58.2784 310.698 57.7718 310.945 57.3835C311.191 56.9905 311.52 56.6828 311.932 56.4602C312.344 56.2377 312.798 56.072 313.295 55.9631C313.797 55.8494 314.302 55.7595 314.808 55.6932C315.471 55.608 316.008 55.544 316.42 55.5014C316.837 55.4541 317.14 55.3759 317.329 55.267C317.524 55.1581 317.621 54.9687 317.621 54.6989V54.642C317.621 53.9413 317.429 53.3968 317.045 53.0085C316.667 52.6203 316.091 52.4261 315.32 52.4261C314.519 52.4261 313.892 52.6013 313.437 52.9517C312.983 53.3021 312.663 53.6761 312.479 54.0739L310.888 53.5057C311.172 52.8428 311.551 52.3267 312.024 51.9574C312.502 51.5833 313.023 51.3229 313.587 51.1761C314.155 51.0246 314.713 50.9489 315.263 50.9489C315.613 50.9489 316.016 50.9915 316.47 51.0767C316.929 51.1572 317.372 51.3253 317.798 51.581C318.229 51.8366 318.587 52.2225 318.871 52.7386C319.155 53.2547 319.297 53.946 319.297 54.8125V62H317.621V60.5227H317.535C317.422 60.7595 317.232 61.0128 316.967 61.2827C316.702 61.5526 316.349 61.7822 315.909 61.9716C315.469 62.161 314.931 62.2557 314.297 62.2557ZM314.552 60.75C315.215 60.75 315.774 60.6198 316.229 60.3594C316.688 60.099 317.034 59.7628 317.266 59.3509C317.502 58.9389 317.621 58.5057 317.621 58.0511V56.517C317.55 56.6023 317.393 56.6804 317.152 56.7514C316.915 56.8177 316.641 56.8769 316.328 56.929C316.02 56.9763 315.72 57.0189 315.426 57.0568C315.137 57.09 314.903 57.1184 314.723 57.142C314.287 57.1989 313.88 57.2912 313.501 57.419C313.127 57.5421 312.824 57.7292 312.592 57.9801C312.365 58.2263 312.251 58.5625 312.251 58.9886C312.251 59.571 312.467 60.0114 312.898 60.3097C313.333 60.6032 313.885 60.75 314.552 60.75ZM326.64 66.3182C325.83 66.3182 325.134 66.214 324.551 66.0057C323.969 65.8021 323.484 65.5322 323.095 65.196C322.712 64.8646 322.407 64.5095 322.179 64.1307L323.515 63.1932C323.666 63.392 323.858 63.6193 324.09 63.875C324.322 64.1354 324.639 64.3603 325.042 64.5497C325.449 64.7438 325.981 64.8409 326.64 64.8409C327.52 64.8409 328.247 64.6278 328.82 64.2017C329.393 63.7756 329.679 63.108 329.679 62.1989V59.983H329.537C329.414 60.1818 329.239 60.428 329.012 60.7216C328.789 61.0104 328.467 61.2685 328.046 61.4957C327.629 61.7183 327.066 61.8295 326.355 61.8295C325.475 61.8295 324.684 61.6212 323.983 61.2045C323.287 60.7879 322.736 60.1818 322.328 59.3864C321.926 58.5909 321.725 57.625 321.725 56.4886C321.725 55.3712 321.921 54.3982 322.314 53.5696C322.707 52.7363 323.254 52.0923 323.955 51.6378C324.656 51.1785 325.465 50.9489 326.384 50.9489C327.094 50.9489 327.658 51.0672 328.074 51.304C328.496 51.536 328.818 51.8011 329.04 52.0994C329.267 52.393 329.443 52.6345 329.566 52.8239H329.736V51.0909H331.355V62.3125C331.355 63.25 331.142 64.0123 330.716 64.5994C330.295 65.1913 329.727 65.6245 329.012 65.8991C328.301 66.1785 327.511 66.3182 326.64 66.3182ZM326.583 60.3239C327.255 60.3239 327.823 60.17 328.287 59.8622C328.751 59.5545 329.104 59.1117 329.345 58.5341C329.587 57.9564 329.708 57.2652 329.708 56.4602C329.708 55.6742 329.589 54.9806 329.353 54.3793C329.116 53.7779 328.765 53.3068 328.301 52.9659C327.837 52.625 327.265 52.4545 326.583 52.4545C325.872 52.4545 325.281 52.6345 324.807 52.9943C324.338 53.3542 323.986 53.8371 323.749 54.4432C323.517 55.0492 323.401 55.7216 323.401 56.4602C323.401 57.2178 323.519 57.8878 323.756 58.4702C323.997 59.0478 324.353 59.5024 324.821 59.8338C325.295 60.1605 325.882 60.3239 326.583 60.3239ZM338.877 62.2273C337.826 62.2273 336.92 61.9953 336.157 61.5312C335.4 61.0625 334.815 60.4091 334.403 59.571C333.996 58.7282 333.792 57.7481 333.792 56.6307C333.792 55.5133 333.996 54.5284 334.403 53.6761C334.815 52.8191 335.388 52.1515 336.122 51.6733C336.86 51.1903 337.722 50.9489 338.707 50.9489C339.275 50.9489 339.836 51.0436 340.39 51.233C340.944 51.4223 341.449 51.7301 341.903 52.1562C342.358 52.5777 342.72 53.1364 342.99 53.8324C343.26 54.5284 343.395 55.3854 343.395 56.4034V57.1136H334.985V55.6648H341.69C341.69 55.0492 341.567 54.5 341.321 54.017C341.079 53.5341 340.734 53.1529 340.284 52.8736C339.839 52.5942 339.313 52.4545 338.707 52.4545C338.039 52.4545 337.462 52.6203 336.974 52.9517C336.491 53.2784 336.119 53.7045 335.859 54.2301C335.599 54.7557 335.468 55.3191 335.468 55.9205V56.8864C335.468 57.7102 335.61 58.4086 335.895 58.9815C336.183 59.5497 336.583 59.983 337.095 60.2812C337.606 60.5748 338.2 60.7216 338.877 60.7216C339.318 60.7216 339.716 60.66 340.071 60.5369C340.431 60.4091 340.741 60.2197 341.001 59.9688C341.261 59.7131 341.463 59.3958 341.605 59.017L343.224 59.4716C343.054 60.0208 342.767 60.5038 342.365 60.9205C341.962 61.3324 341.465 61.6544 340.873 61.8864C340.281 62.1136 339.616 62.2273 338.877 62.2273Z" fill="#252C32"/>
</svg>
